ISO-10303-21;
HEADER;
FILE_DESCRIPTION(('Open CASCADE Model'),'2;1');
FILE_NAME('Open CASCADE Shape Model','2026-07-15T12:09:29',('Author'),(
    'Open CASCADE'),'Open CASCADE STEP processor 7.9','Open CASCADE 7.9'
  ,'Unknown');
FILE_SCHEMA(('AUTOMOTIVE_DESIGN { 1 0 10303 214 1 1 1 1 }'));
ENDSEC;
DATA;
#1 = APPLICATION_PROTOCOL_DEFINITION('international standard',
  'automotive_design',2000,#2);
#2 = APPLICATION_CONTEXT(
  'core data for automotive mechanical design processes');
#3 = SHAPE_DEFINITION_REPRESENTATION(#4,#10);
#4 = PRODUCT_DEFINITION_SHAPE('','',#5);
#5 = PRODUCT_DEFINITION('design','',#6,#9);
#6 = PRODUCT_DEFINITION_FORMATION('','',#7);
#7 = PRODUCT('Open CASCADE STEP translator 7.9 10',
  'Open CASCADE STEP translator 7.9 10','',(#8));
#8 = PRODUCT_CONTEXT('',#2,'mechanical');
#9 = PRODUCT_DEFINITION_CONTEXT('part definition',#2,'design');
#10 = ADVANCED_BREP_SHAPE_REPRESENTATION('',(#11,#15),#1323);
#11 = AXIS2_PLACEMENT_3D('',#12,#13,#14);
#12 = CARTESIAN_POINT('',(0.,0.,0.));
#13 = DIRECTION('',(0.,0.,1.));
#14 = DIRECTION('',(1.,0.,-0.));
#15 = MANIFOLD_SOLID_BREP('',#16);
#16 = CLOSED_SHELL('',(#17,#487,#859,#889,#923,#1269));
#17 = ADVANCED_FACE('',(#18,#316),#55,.T.);
#18 = FACE_BOUND('',#19,.F.);
#19 = EDGE_LOOP('',(#20,#124,#147,#174,#175,#265,#288,#315));
#20 = ORIENTED_EDGE('',*,*,#21,.T.);
#21 = EDGE_CURVE('',#22,#24,#26,.T.);
#22 = VERTEX_POINT('',#23);
#23 = CARTESIAN_POINT('',(8.,0.,0.85));
#24 = VERTEX_POINT('',#25);
#25 = CARTESIAN_POINT('',(8.,2.020667218593E-16,4.15));
#26 = SURFACE_CURVE('',#27,(#54,#89),.PCURVE_S1.);
#27 = B_SPLINE_CURVE_WITH_KNOTS('',7,(#28,#29,#30,#31,#32,#33,#34,#35,
    #36,#37,#38,#39,#40,#41,#42,#43,#44,#45,#46,#47,#48,#49,#50,#51,#52,
    #53),.UNSPECIFIED.,.F.,.F.,(8,6,6,6,8),(0.,0.237626374869,
    0.500039003899,0.762451632929,1.),.UNSPECIFIED.);
#28 = CARTESIAN_POINT('',(8.,6.317138353229E-16,0.85));
#29 = CARTESIAN_POINT('',(8.,0.20844840268,0.85));
#30 = CARTESIAN_POINT('',(7.993663208822,0.412208443946,0.880722510494)
  );
#31 = CARTESIAN_POINT('',(7.981504359526,0.605884943828,0.939681528972)
  );
#32 = CARTESIAN_POINT('',(7.964965647289,0.784820833839,1.023300881236)
  );
#33 = CARTESIAN_POINT('',(7.946124445157,0.94529311002,1.126940968811));
#34 = CARTESIAN_POINT('',(7.926998833085,1.084859752527,1.244905547311)
  );
#35 = CARTESIAN_POINT('',(7.889256171224,1.333038606631,1.509189183987)
  );
#36 = CARTESIAN_POINT('',(7.870411451886,1.440119213304,1.66060682508));
#37 = CARTESIAN_POINT('',(7.85404310012,1.524683980354,1.820787722669));
#38 = CARTESIAN_POINT('',(7.841171088857,1.587488355468,1.986872000052)
  );
#39 = CARTESIAN_POINT('',(7.832390698657,1.629143874052,2.156641747731)
  );
#40 = CARTESIAN_POINT('',(7.827994634643,1.65,2.328253008661));
#41 = CARTESIAN_POINT('',(7.827994634643,1.65,2.671746991339));
#42 = CARTESIAN_POINT('',(7.832390698657,1.629143874052,2.843358252269)
  );
#43 = CARTESIAN_POINT('',(7.841171088857,1.587488355468,3.013127999948)
  );
#44 = CARTESIAN_POINT('',(7.85404310012,1.524683980354,3.179212277331));
#45 = CARTESIAN_POINT('',(7.870411451886,1.440119213304,3.33939317492));
#46 = CARTESIAN_POINT('',(7.889256171224,1.333038606631,3.490810816013)
  );
#47 = CARTESIAN_POINT('',(7.9269929451,1.084898469279,3.755053223536));
#48 = CARTESIAN_POINT('',(7.946120539124,0.945327834218,3.873042207607)
  );
#49 = CARTESIAN_POINT('',(7.964968341647,0.784815265086,3.976717872038)
  );
#50 = CARTESIAN_POINT('',(7.981511624423,0.605825572856,4.060353596599)
  );
#51 = CARTESIAN_POINT('',(7.993668229354,0.412112799105,4.119301852439)
  );
#52 = CARTESIAN_POINT('',(8.,0.208365755871,4.15));
#53 = CARTESIAN_POINT('',(8.,2.020667218593E-16,4.15));
#54 = PCURVE('',#55,#60);
#55 = CYLINDRICAL_SURFACE('',#56,8.);
#56 = AXIS2_PLACEMENT_3D('',#57,#58,#59);
#57 = CARTESIAN_POINT('',(0.,0.,0.));
#58 = DIRECTION('',(-0.,-0.,-1.));
#59 = DIRECTION('',(1.,0.,0.));
#60 = DEFINITIONAL_REPRESENTATION('',(#61),#88);
#61 = B_SPLINE_CURVE_WITH_KNOTS('',7,(#62,#63,#64,#65,#66,#67,#68,#69,
    #70,#71,#72,#73,#74,#75,#76,#77,#78,#79,#80,#81,#82,#83,#84,#85,#86,
    #87),.UNSPECIFIED.,.F.,.F.,(8,6,6,6,8),(0.,0.237626374869,
    0.500039003899,0.762451632929,1.),.UNSPECIFIED.);
#62 = CARTESIAN_POINT('',(0.,-0.85));
#63 = CARTESIAN_POINT('',(-2.605605033497E-02,-0.85));
#64 = CARTESIAN_POINT('',(-5.152608391644E-02,-0.880722510494));
#65 = CARTESIAN_POINT('',(-7.576438443689E-02,-0.939681528972));
#66 = CARTESIAN_POINT('',(-9.82126489377E-02,-1.023300881236));
#67 = CARTESIAN_POINT('',(-0.118403311111,-1.126940968811));
#68 = CARTESIAN_POINT('',(-0.136010249439,-1.244905547311));
#69 = CARTESIAN_POINT('',(-0.167389296028,-1.509189183987));
#70 = CARTESIAN_POINT('',(-0.180976383759,-1.66060682508));
#71 = CARTESIAN_POINT('',(-0.191741742295,-1.820787722669));
#72 = CARTESIAN_POINT('',(-0.199755345092,-1.986872000052));
#73 = CARTESIAN_POINT('',(-0.205076702931,-2.156641747731));
#74 = CARTESIAN_POINT('',(-0.207741002049,-2.328253008661));
#75 = CARTESIAN_POINT('',(-0.207741002049,-2.671746991339));
#76 = CARTESIAN_POINT('',(-0.205076702931,-2.843358252269));
#77 = CARTESIAN_POINT('',(-0.199755345092,-3.013127999949));
#78 = CARTESIAN_POINT('',(-0.191741742295,-3.179212277331));
#79 = CARTESIAN_POINT('',(-0.180976383759,-3.33939317492));
#80 = CARTESIAN_POINT('',(-0.167389296028,-3.490810816013));
#81 = CARTESIAN_POINT('',(-0.136015144678,-3.755053223536));
#82 = CARTESIAN_POINT('',(-0.118407676267,-3.873042207607));
#83 = CARTESIAN_POINT('',(-9.821191300452E-02,-3.976717872037));
#84 = CARTESIAN_POINT('',(-7.575692621847E-02,-4.0603535966));
#85 = CARTESIAN_POINT('',(-5.151412885347E-02,-4.119301852439));
#86 = CARTESIAN_POINT('',(-2.604571948391E-02,-4.15));
#87 = CARTESIAN_POINT('',(0.,-4.15));
#88 = ( GEOMETRIC_REPRESENTATION_CONTEXT(2) 
PARAMETRIC_REPRESENTATION_CONTEXT() REPRESENTATION_CONTEXT('2D SPACE',''
  ) );
#89 = PCURVE('',#90,#95);
#90 = CYLINDRICAL_SURFACE('',#91,1.65);
#91 = AXIS2_PLACEMENT_3D('',#92,#93,#94);
#92 = CARTESIAN_POINT('',(-9.,0.,2.5));
#93 = DIRECTION('',(1.,0.,0.));
#94 = DIRECTION('',(-0.,0.,1.));
#95 = DEFINITIONAL_REPRESENTATION('',(#96),#123);
#96 = B_SPLINE_CURVE_WITH_KNOTS('',7,(#97,#98,#99,#100,#101,#102,#103,
    #104,#105,#106,#107,#108,#109,#110,#111,#112,#113,#114,#115,#116,
    #117,#118,#119,#120,#121,#122),.UNSPECIFIED.,.F.,.F.,(8,6,6,6,8),(0.
    ,0.237626374869,0.500039003899,0.762451632929,1.),.UNSPECIFIED.);
#97 = CARTESIAN_POINT('',(3.14159265359,17.));
#98 = CARTESIAN_POINT('',(3.26792501885,17.));
#99 = CARTESIAN_POINT('',(3.391415847256,16.993663208822));
#100 = CARTESIAN_POINT('',(3.512089197219,16.981504359526));
#101 = CARTESIAN_POINT('',(3.629747541095,16.964965647289));
#102 = CARTESIAN_POINT('',(3.743970721409,16.946124445157));
#103 = CARTESIAN_POINT('',(3.853990454717,16.926998833085));
#104 = CARTESIAN_POINT('',(4.073714452418,16.889256171224));
#105 = CARTESIAN_POINT('',(4.185036053339,16.870411451886));
#106 = CARTESIAN_POINT('',(4.29339103519,16.85404310012));
#107 = CARTESIAN_POINT('',(4.39955973215,16.841171088857));
#108 = CARTESIAN_POINT('',(4.504293234427,16.832390698657));
#109 = CARTESIAN_POINT('',(4.608299894725,16.827994634643));
#110 = CARTESIAN_POINT('',(4.816478066045,16.827994634643));
#111 = CARTESIAN_POINT('',(4.920484726342,16.832390698657));
#112 = CARTESIAN_POINT('',(5.02521822862,16.841171088857));
#113 = CARTESIAN_POINT('',(5.131386925579,16.85404310012));
#114 = CARTESIAN_POINT('',(5.23974190743,16.870411451886));
#115 = CARTESIAN_POINT('',(5.351063508351,16.889256171224));
#116 = CARTESIAN_POINT('',(5.570753228356,16.9269929451));
#117 = CARTESIAN_POINT('',(5.68078540952,16.946120539124));
#118 = CARTESIAN_POINT('',(5.795039140585,16.964968341647));
#119 = CARTESIAN_POINT('',(5.912728617379,16.981511624423));
#120 = CARTESIAN_POINT('',(6.033420089435,16.993668229354));
#121 = CARTESIAN_POINT('',(6.156903030894,17.));
#122 = CARTESIAN_POINT('',(6.28318530718,17.));
#123 = ( GEOMETRIC_REPRESENTATION_CONTEXT(2) 
PARAMETRIC_REPRESENTATION_CONTEXT() REPRESENTATION_CONTEXT('2D SPACE',''
  ) );
#124 = ORIENTED_EDGE('',*,*,#125,.T.);
#125 = EDGE_CURVE('',#24,#126,#128,.T.);
#126 = VERTEX_POINT('',#127);
#127 = CARTESIAN_POINT('',(8.,0.,5.));
#128 = SEAM_CURVE('',#129,(#133,#140),.PCURVE_S1.);
#129 = LINE('',#130,#131);
#130 = CARTESIAN_POINT('',(8.,0.,0.));
#131 = VECTOR('',#132,1.);
#132 = DIRECTION('',(0.,0.,1.));
#133 = PCURVE('',#55,#134);
#134 = DEFINITIONAL_REPRESENTATION('',(#135),#139);
#135 = LINE('',#136,#137);
#136 = CARTESIAN_POINT('',(-6.28318530718,0.));
#137 = VECTOR('',#138,1.);
#138 = DIRECTION('',(-0.,-1.));
#139 = ( GEOMETRIC_REPRESENTATION_CONTEXT(2) 
PARAMETRIC_REPRESENTATION_CONTEXT() REPRESENTATION_CONTEXT('2D SPACE',''
  ) );
#140 = PCURVE('',#55,#141);
#141 = DEFINITIONAL_REPRESENTATION('',(#142),#146);
#142 = LINE('',#143,#144);
#143 = CARTESIAN_POINT('',(-0.,0.));
#144 = VECTOR('',#145,1.);
#145 = DIRECTION('',(-0.,-1.));
#146 = ( GEOMETRIC_REPRESENTATION_CONTEXT(2) 
PARAMETRIC_REPRESENTATION_CONTEXT() REPRESENTATION_CONTEXT('2D SPACE',''
  ) );
#147 = ORIENTED_EDGE('',*,*,#148,.T.);
#148 = EDGE_CURVE('',#126,#126,#149,.T.);
#149 = SURFACE_CURVE('',#150,(#155,#162),.PCURVE_S1.);
#150 = CIRCLE('',#151,8.);
#151 = AXIS2_PLACEMENT_3D('',#152,#153,#154);
#152 = CARTESIAN_POINT('',(0.,0.,5.));
#153 = DIRECTION('',(0.,0.,1.));
#154 = DIRECTION('',(1.,0.,0.));
#155 = PCURVE('',#55,#156);
#156 = DEFINITIONAL_REPRESENTATION('',(#157),#161);
#157 = LINE('',#158,#159);
#158 = CARTESIAN_POINT('',(-0.,-5.));
#159 = VECTOR('',#160,1.);
#160 = DIRECTION('',(-1.,0.));
#161 = ( GEOMETRIC_REPRESENTATION_CONTEXT(2) 
PARAMETRIC_REPRESENTATION_CONTEXT() REPRESENTATION_CONTEXT('2D SPACE',''
  ) );
#162 = PCURVE('',#163,#168);
#163 = PLANE('',#164);
#164 = AXIS2_PLACEMENT_3D('',#165,#166,#167);
#165 = CARTESIAN_POINT('',(-5.127900497023E-16,6.990076196319E-16,5.));
#166 = DIRECTION('',(0.,0.,1.));
#167 = DIRECTION('',(1.,0.,-0.));
#168 = DEFINITIONAL_REPRESENTATION('',(#169),#173);
#169 = CIRCLE('',#170,8.);
#170 = AXIS2_PLACEMENT_2D('',#171,#172);
#171 = CARTESIAN_POINT('',(5.127900497023E-16,-6.990076196319E-16));
#172 = DIRECTION('',(1.,0.));
#173 = ( GEOMETRIC_REPRESENTATION_CONTEXT(2) 
PARAMETRIC_REPRESENTATION_CONTEXT() REPRESENTATION_CONTEXT('2D SPACE',''
  ) );
#174 = ORIENTED_EDGE('',*,*,#125,.F.);
#175 = ORIENTED_EDGE('',*,*,#176,.T.);
#176 = EDGE_CURVE('',#24,#22,#177,.T.);
#177 = SURFACE_CURVE('',#178,(#205,#235),.PCURVE_S1.);
#178 = B_SPLINE_CURVE_WITH_KNOTS('',7,(#179,#180,#181,#182,#183,#184,
    #185,#186,#187,#188,#189,#190,#191,#192,#193,#194,#195,#196,#197,
    #198,#199,#200,#201,#202,#203,#204),.UNSPECIFIED.,.F.,.F.,(8,6,6,6,8
    ),(0.,0.237623873329,0.500032972419,0.762453615174,1.),
  .UNSPECIFIED.);
#179 = CARTESIAN_POINT('',(8.,-8.881784197001E-16,4.15));
#180 = CARTESIAN_POINT('',(8.,-0.20844840268,4.15));
#181 = CARTESIAN_POINT('',(7.993663208822,-0.412208443945,4.119277489506
    ));
#182 = CARTESIAN_POINT('',(7.981504359526,-0.605884943828,4.060318471027
    ));
#183 = CARTESIAN_POINT('',(7.964965647289,-0.784820833839,3.976699118764
    ));
#184 = CARTESIAN_POINT('',(7.946124445157,-0.94529311002,3.873059031189)
  );
#185 = CARTESIAN_POINT('',(7.926998833085,-1.084859752527,3.755094452689
    ));
#186 = CARTESIAN_POINT('',(7.889256229153,-1.333038225717,3.490811221645
    ));
#187 = CARTESIAN_POINT('',(7.870411681518,-1.440117794746,3.339394938887
    ));
#188 = CARTESIAN_POINT('',(7.854043212893,-1.524683817745,3.179213790538
    ));
#189 = CARTESIAN_POINT('',(7.841170729015,-1.587490010958,3.013126280402
    ));
#190 = CARTESIAN_POINT('',(7.83239032302,-1.629145675325,2.843352100926)
  );
#191 = CARTESIAN_POINT('',(7.827994634643,-1.65,2.671739436333));
#192 = CARTESIAN_POINT('',(7.827994634643,-1.65,2.328253008661));
#193 = CARTESIAN_POINT('',(7.832390698657,-1.629143874052,2.156641747731
    ));
#194 = CARTESIAN_POINT('',(7.841171088857,-1.587488355468,1.986872000051
    ));
#195 = CARTESIAN_POINT('',(7.85404310012,-1.524683980354,1.820787722669)
  );
#196 = CARTESIAN_POINT('',(7.870411451886,-1.440119213304,1.66060682508)
  );
#197 = CARTESIAN_POINT('',(7.889256171224,-1.333038606631,1.509189183987
    ));
#198 = CARTESIAN_POINT('',(7.926992247945,-1.084903053463,1.244951658125
    ));
#199 = CARTESIAN_POINT('',(7.946119410627,-0.945336287192,1.126964414831
    ));
#200 = CARTESIAN_POINT('',(7.9649675916,-0.784823561167,1.023285333112)
  );
#201 = CARTESIAN_POINT('',(7.98151190651,-0.605827728673,0.939644822728)
  );
#202 = CARTESIAN_POINT('',(7.993668877114,-0.412106272467,0.880695103804
    ));
#203 = CARTESIAN_POINT('',(8.,-0.208355332943,0.85));
#204 = CARTESIAN_POINT('',(8.,-4.440892098501E-16,0.85));
#205 = PCURVE('',#55,#206);
#206 = DEFINITIONAL_REPRESENTATION('',(#207),#234);
#207 = B_SPLINE_CURVE_WITH_KNOTS('',7,(#208,#209,#210,#211,#212,#213,
    #214,#215,#216,#217,#218,#219,#220,#221,#222,#223,#224,#225,#226,
    #227,#228,#229,#230,#231,#232,#233),.UNSPECIFIED.,.F.,.F.,(8,6,6,6,8
    ),(0.,0.237623873329,0.500032972419,0.762453615174,1.),
  .UNSPECIFIED.);
#208 = CARTESIAN_POINT('',(-6.28318530718,-4.15));
#209 = CARTESIAN_POINT('',(-6.257129256845,-4.15));
#210 = CARTESIAN_POINT('',(-6.231659223263,-4.119277489506));
#211 = CARTESIAN_POINT('',(-6.207420922743,-4.060318471028));
#212 = CARTESIAN_POINT('',(-6.184972658242,-3.976699118764));
#213 = CARTESIAN_POINT('',(-6.164781996069,-3.873059031189));
#214 = CARTESIAN_POINT('',(-6.147175057741,-3.755094452689));
#215 = CARTESIAN_POINT('',(-6.115796059313,-3.490811221645));
#216 = CARTESIAN_POINT('',(-6.102209102987,-3.339394938887));
#217 = CARTESIAN_POINT('',(-6.091443587418,-3.179213790538));
#218 = CARTESIAN_POINT('',(-6.0834297505,-3.013126280402));
#219 = CARTESIAN_POINT('',(-6.078108374185,-2.843352100926));
#220 = CARTESIAN_POINT('',(-6.075444305131,-2.671739436333));
#221 = CARTESIAN_POINT('',(-6.075444305131,-2.328253008661));
#222 = CARTESIAN_POINT('',(-6.078108604248,-2.156641747731));
#223 = CARTESIAN_POINT('',(-6.083429962087,-1.986872000052));
#224 = CARTESIAN_POINT('',(-6.091443564884,-1.820787722669));
#225 = CARTESIAN_POINT('',(-6.10220892342,-1.66060682508));
#226 = CARTESIAN_POINT('',(-6.115796011152,-1.509189183987));
#227 = CARTESIAN_POINT('',(-6.14716958289,-1.244951658125));
#228 = CARTESIAN_POINT('',(-6.164776564215,-1.126964414832));
#229 = CARTESIAN_POINT('',(-6.184972357018,-1.023285333112));
#230 = CARTESIAN_POINT('',(-6.207428113038,-0.939644822729));
#231 = CARTESIAN_POINT('',(-6.231671995833,-0.880695103804));
#232 = CARTESIAN_POINT('',(-6.257140890562,-0.85));
#233 = CARTESIAN_POINT('',(-6.28318530718,-0.85));
#234 = ( GEOMETRIC_REPRESENTATION_CONTEXT(2) 
PARAMETRIC_REPRESENTATION_CONTEXT() REPRESENTATION_CONTEXT('2D SPACE',''
  ) );
#235 = PCURVE('',#90,#236);
#236 = DEFINITIONAL_REPRESENTATION('',(#237),#264);
#237 = B_SPLINE_CURVE_WITH_KNOTS('',7,(#238,#239,#240,#241,#242,#243,
    #244,#245,#246,#247,#248,#249,#250,#251,#252,#253,#254,#255,#256,
    #257,#258,#259,#260,#261,#262,#263),.UNSPECIFIED.,.F.,.F.,(8,6,6,6,8
    ),(0.,0.237623873329,0.500032972419,0.762453615174,1.),
  .UNSPECIFIED.);
#238 = CARTESIAN_POINT('',(0.,17.));
#239 = CARTESIAN_POINT('',(0.126332365261,17.));
#240 = CARTESIAN_POINT('',(0.249823193666,16.993663208822));
#241 = CARTESIAN_POINT('',(0.37049654363,16.981504359526));
#242 = CARTESIAN_POINT('',(0.488154887505,16.964965647289));
#243 = CARTESIAN_POINT('',(0.602378067819,16.946124445157));
#244 = CARTESIAN_POINT('',(0.712397801127,16.926998833085));
#245 = CARTESIAN_POINT('',(0.932121461588,16.889256229153));
#246 = CARTESIAN_POINT('',(1.043442039571,16.870411681518));
#247 = CARTESIAN_POINT('',(1.151797591653,16.854043212893));
#248 = CARTESIAN_POINT('',(1.257968383587,16.841170729015));
#249 = CARTESIAN_POINT('',(1.362704293244,16.83239032302));
#250 = CARTESIAN_POINT('',(1.466711819927,16.827994634643));
#251 = CARTESIAN_POINT('',(1.674885412455,16.827994634643));
#252 = CARTESIAN_POINT('',(1.778892072753,16.832390698657));
#253 = CARTESIAN_POINT('',(1.88362557503,16.841171088857));
#254 = CARTESIAN_POINT('',(1.98979427199,16.85404310012));
#255 = CARTESIAN_POINT('',(2.09814925384,16.870411451886));
#256 = CARTESIAN_POINT('',(2.209470854762,16.889256171224));
#257 = CARTESIAN_POINT('',(2.429156516179,16.926992247945));
#258 = CARTESIAN_POINT('',(2.53918633004,16.946119410627));
#259 = CARTESIAN_POINT('',(2.653441386547,16.9649675916));
#260 = CARTESIAN_POINT('',(2.77113514779,16.98151190651));
#261 = CARTESIAN_POINT('',(2.891831386564,16.993668877114));
#262 = CARTESIAN_POINT('',(3.01531669423,17.));
#263 = CARTESIAN_POINT('',(3.14159265359,17.));
#264 = ( GEOMETRIC_REPRESENTATION_CONTEXT(2) 
PARAMETRIC_REPRESENTATION_CONTEXT() REPRESENTATION_CONTEXT('2D SPACE',''
  ) );
#265 = ORIENTED_EDGE('',*,*,#266,.F.);
#266 = EDGE_CURVE('',#267,#22,#269,.T.);
#267 = VERTEX_POINT('',#268);
#268 = CARTESIAN_POINT('',(8.,0.,0.));
#269 = SEAM_CURVE('',#270,(#274,#281),.PCURVE_S1.);
#270 = LINE('',#271,#272);
#271 = CARTESIAN_POINT('',(8.,0.,0.));
#272 = VECTOR('',#273,1.);
#273 = DIRECTION('',(0.,0.,1.));
#274 = PCURVE('',#55,#275);
#275 = DEFINITIONAL_REPRESENTATION('',(#276),#280);
#276 = LINE('',#277,#278);
#277 = CARTESIAN_POINT('',(-0.,0.));
#278 = VECTOR('',#279,1.);
#279 = DIRECTION('',(-0.,-1.));
#280 = ( GEOMETRIC_REPRESENTATION_CONTEXT(2) 
PARAMETRIC_REPRESENTATION_CONTEXT() REPRESENTATION_CONTEXT('2D SPACE',''
  ) );
#281 = PCURVE('',#55,#282);
#282 = DEFINITIONAL_REPRESENTATION('',(#283),#287);
#283 = LINE('',#284,#285);
#284 = CARTESIAN_POINT('',(-6.28318530718,0.));
#285 = VECTOR('',#286,1.);
#286 = DIRECTION('',(-0.,-1.));
#287 = ( GEOMETRIC_REPRESENTATION_CONTEXT(2) 
PARAMETRIC_REPRESENTATION_CONTEXT() REPRESENTATION_CONTEXT('2D SPACE',''
  ) );
#288 = ORIENTED_EDGE('',*,*,#289,.F.);
#289 = EDGE_CURVE('',#267,#267,#290,.T.);
#290 = SURFACE_CURVE('',#291,(#296,#303),.PCURVE_S1.);
#291 = CIRCLE('',#292,8.);
#292 = AXIS2_PLACEMENT_3D('',#293,#294,#295);
#293 = CARTESIAN_POINT('',(0.,0.,0.));
#294 = DIRECTION('',(0.,0.,1.));
#295 = DIRECTION('',(1.,0.,0.));
#296 = PCURVE('',#55,#297);
#297 = DEFINITIONAL_REPRESENTATION('',(#298),#302);
#298 = LINE('',#299,#300);
#299 = CARTESIAN_POINT('',(-0.,0.));
#300 = VECTOR('',#301,1.);
#301 = DIRECTION('',(-1.,0.));
#302 = ( GEOMETRIC_REPRESENTATION_CONTEXT(2) 
PARAMETRIC_REPRESENTATION_CONTEXT() REPRESENTATION_CONTEXT('2D SPACE',''
  ) );
#303 = PCURVE('',#304,#309);
#304 = PLANE('',#305);
#305 = AXIS2_PLACEMENT_3D('',#306,#307,#308);
#306 = CARTESIAN_POINT('',(-5.127900497023E-16,6.990076196319E-16,0.));
#307 = DIRECTION('',(0.,0.,1.));
#308 = DIRECTION('',(1.,0.,-0.));
#309 = DEFINITIONAL_REPRESENTATION('',(#310),#314);
#310 = CIRCLE('',#311,8.);
#311 = AXIS2_PLACEMENT_2D('',#312,#313);
#312 = CARTESIAN_POINT('',(5.127900497023E-16,-6.990076196319E-16));
#313 = DIRECTION('',(1.,0.));
#314 = ( GEOMETRIC_REPRESENTATION_CONTEXT(2) 
PARAMETRIC_REPRESENTATION_CONTEXT() REPRESENTATION_CONTEXT('2D SPACE',''
  ) );
#315 = ORIENTED_EDGE('',*,*,#266,.T.);
#316 = FACE_BOUND('',#317,.F.);
#317 = EDGE_LOOP('',(#318));
#318 = ORIENTED_EDGE('',*,*,#319,.F.);
#319 = EDGE_CURVE('',#320,#320,#322,.T.);
#320 = VERTEX_POINT('',#321);
#321 = CARTESIAN_POINT('',(-8.,4.041334437186E-16,4.15));
#322 = SURFACE_CURVE('',#323,(#374,#428),.PCURVE_S1.);
#323 = B_SPLINE_CURVE_WITH_KNOTS('',7,(#324,#325,#326,#327,#328,#329,
    #330,#331,#332,#333,#334,#335,#336,#337,#338,#339,#340,#341,#342,
    #343,#344,#345,#346,#347,#348,#349,#350,#351,#352,#353,#354,#355,
    #356,#357,#358,#359,#360,#361,#362,#363,#364,#365,#366,#367,#368,
    #369,#370,#371,#372,#373),.UNSPECIFIED.,.T.,.F.,(8,6,6,6,6,6,6,6,8),
  (0.,0.118805405984,0.25000274367,0.381205852871,0.499972516733,
    0.618792232187,0.750005755645,0.881219283117,1.),.UNSPECIFIED.);
#324 = CARTESIAN_POINT('',(-8.,6.661338147751E-16,4.15));
#325 = CARTESIAN_POINT('',(-8.,-0.20844840268,4.15));
#326 = CARTESIAN_POINT('',(-7.993663208822,-0.412208443945,
    4.119277489506));
#327 = CARTESIAN_POINT('',(-7.981504359526,-0.605884943828,
    4.060318471028));
#328 = CARTESIAN_POINT('',(-7.964965647289,-0.784820833839,
    3.976699118764));
#329 = CARTESIAN_POINT('',(-7.946124445157,-0.94529311002,3.873059031189
    ));
#330 = CARTESIAN_POINT('',(-7.926998833085,-1.084859752527,
    3.755094452689));
#331 = CARTESIAN_POINT('',(-7.889256229153,-1.333038225717,
    3.490811221645));
#332 = CARTESIAN_POINT('',(-7.870411681518,-1.440117794746,
    3.339394938887));
#333 = CARTESIAN_POINT('',(-7.854043212893,-1.524683817745,
    3.179213790538));
#334 = CARTESIAN_POINT('',(-7.841170729015,-1.587490010958,
    3.013126280403));
#335 = CARTESIAN_POINT('',(-7.83239032302,-1.629145675325,2.843352100926
    ));
#336 = CARTESIAN_POINT('',(-7.827994634643,-1.65,2.671739436333));
#337 = CARTESIAN_POINT('',(-7.827994634643,-1.65,2.328253008661));
#338 = CARTESIAN_POINT('',(-7.832390698657,-1.629143874052,
    2.156641747731));
#339 = CARTESIAN_POINT('',(-7.841171088857,-1.587488355468,
    1.986872000051));
#340 = CARTESIAN_POINT('',(-7.85404310012,-1.524683980354,1.820787722669
    ));
#341 = CARTESIAN_POINT('',(-7.870411451886,-1.440119213304,1.66060682508
    ));
#342 = CARTESIAN_POINT('',(-7.889256171224,-1.333038606631,
    1.509189183987));
#343 = CARTESIAN_POINT('',(-7.926992247945,-1.084903053464,
    1.244951658125));
#344 = CARTESIAN_POINT('',(-7.946119410627,-0.945336287191,
    1.126964414831));
#345 = CARTESIAN_POINT('',(-7.9649675916,-0.784823561167,1.023285333112)
  );
#346 = CARTESIAN_POINT('',(-7.98151190651,-0.605827728672,0.939644822728
    ));
#347 = CARTESIAN_POINT('',(-7.993668877114,-0.412106272467,
    0.880695103804));
#348 = CARTESIAN_POINT('',(-8.,-0.208355332943,0.85));
#349 = CARTESIAN_POINT('',(-8.,0.20844840268,0.85));
#350 = CARTESIAN_POINT('',(-7.993663208822,0.412208443946,0.880722510494
    ));
#351 = CARTESIAN_POINT('',(-7.981504359526,0.605884943827,0.939681528972
    ));
#352 = CARTESIAN_POINT('',(-7.964965647289,0.78482083384,1.023300881236)
  );
#353 = CARTESIAN_POINT('',(-7.946124445157,0.94529311002,1.126940968811)
  );
#354 = CARTESIAN_POINT('',(-7.926998833085,1.084859752527,1.244905547311
    ));
#355 = CARTESIAN_POINT('',(-7.889256171224,1.333038606631,1.509189183987
    ));
#356 = CARTESIAN_POINT('',(-7.870411451886,1.440119213304,1.660606825079
    ));
#357 = CARTESIAN_POINT('',(-7.85404310012,1.524683980355,1.82078772267)
  );
#358 = CARTESIAN_POINT('',(-7.841171088857,1.587488355467,1.986872000051
    ));
#359 = CARTESIAN_POINT('',(-7.832390698657,1.629143874052,2.156641747732
    ));
#360 = CARTESIAN_POINT('',(-7.827994634643,1.65,2.328253008661));
#361 = CARTESIAN_POINT('',(-7.827994634643,1.65,2.671746996594));
#362 = CARTESIAN_POINT('',(-7.832390698828,1.629143872685,2.843358239321
    ));
#363 = CARTESIAN_POINT('',(-7.841171087916,1.587488361982,3.013128009543
    ));
#364 = CARTESIAN_POINT('',(-7.854043101992,1.524683968071,3.179212281533
    ));
#365 = CARTESIAN_POINT('',(-7.870411450182,1.44011922435,3.339393164967)
  );
#366 = CARTESIAN_POINT('',(-7.889256171864,1.333038602425,3.490810820492
    ));
#367 = CARTESIAN_POINT('',(-7.9269929451,1.084898469279,3.755053223536)
  );
#368 = CARTESIAN_POINT('',(-7.946120539124,0.945327834217,3.873042207607
    ));
#369 = CARTESIAN_POINT('',(-7.964968341647,0.784815265086,3.976717872037
    ));
#370 = CARTESIAN_POINT('',(-7.981511624423,0.605825572856,4.0603535966)
  );
#371 = CARTESIAN_POINT('',(-7.993668229354,0.412112799105,4.119301852439
    ));
#372 = CARTESIAN_POINT('',(-8.,0.208365755871,4.15));
#373 = CARTESIAN_POINT('',(-8.,6.661338147751E-16,4.15));
#374 = PCURVE('',#55,#375);
#375 = DEFINITIONAL_REPRESENTATION('',(#376),#427);
#376 = B_SPLINE_CURVE_WITH_KNOTS('',7,(#377,#378,#379,#380,#381,#382,
    #383,#384,#385,#386,#387,#388,#389,#390,#391,#392,#393,#394,#395,
    #396,#397,#398,#399,#400,#401,#402,#403,#404,#405,#406,#407,#408,
    #409,#410,#411,#412,#413,#414,#415,#416,#417,#418,#419,#420,#421,
    #422,#423,#424,#425,#426),.UNSPECIFIED.,.T.,.F.,(8,6,6,6,6,6,6,6,8),
  (0.,0.118805405984,0.25000274367,0.381205852871,0.499972516733,
    0.618792232187,0.750005755645,0.881219283117,1.),.UNSPECIFIED.);
#377 = CARTESIAN_POINT('',(-3.14159265359,-4.15));
#378 = CARTESIAN_POINT('',(-3.167648703925,-4.15));
#379 = CARTESIAN_POINT('',(-3.193118737506,-4.119277489506));
#380 = CARTESIAN_POINT('',(-3.217357038027,-4.060318471028));
#381 = CARTESIAN_POINT('',(-3.239805302527,-3.976699118764));
#382 = CARTESIAN_POINT('',(-3.259995964701,-3.873059031189));
#383 = CARTESIAN_POINT('',(-3.277602903029,-3.755094452689));
#384 = CARTESIAN_POINT('',(-3.308981901456,-3.490811221645));
#385 = CARTESIAN_POINT('',(-3.322568857783,-3.339394938887));
#386 = CARTESIAN_POINT('',(-3.333334373352,-3.179213790538));
#387 = CARTESIAN_POINT('',(-3.341348210269,-3.013126280403));
#388 = CARTESIAN_POINT('',(-3.346669586585,-2.843352100926));
#389 = CARTESIAN_POINT('',(-3.349333655639,-2.671739436333));
#390 = CARTESIAN_POINT('',(-3.349333655639,-2.328253008661));
#391 = CARTESIAN_POINT('',(-3.346669356521,-2.156641747731));
#392 = CARTESIAN_POINT('',(-3.341347998682,-1.986872000051));
#393 = CARTESIAN_POINT('',(-3.333334395885,-1.820787722669));
#394 = CARTESIAN_POINT('',(-3.322569037349,-1.66060682508));
#395 = CARTESIAN_POINT('',(-3.308981949618,-1.509189183987));
#396 = CARTESIAN_POINT('',(-3.277608377879,-1.244951658125));
#397 = CARTESIAN_POINT('',(-3.260001396555,-1.126964414831));
#398 = CARTESIAN_POINT('',(-3.239805603752,-1.023285333112));
#399 = CARTESIAN_POINT('',(-3.217349847731,-0.939644822728));
#400 = CARTESIAN_POINT('',(-3.193105964937,-0.880695103804));
#401 = CARTESIAN_POINT('',(-3.167637070208,-0.85));
#402 = CARTESIAN_POINT('',(-3.115536603255,-0.85));
#403 = CARTESIAN_POINT('',(-3.090066569673,-0.880722510494));
#404 = CARTESIAN_POINT('',(-3.065828269153,-0.939681528972));
#405 = CARTESIAN_POINT('',(-3.043380004652,-1.023300881236));
#406 = CARTESIAN_POINT('',(-3.023189342479,-1.126940968811));
#407 = CARTESIAN_POINT('',(-3.005582404151,-1.244905547311));
#408 = CARTESIAN_POINT('',(-2.974203357562,-1.509189183987));
#409 = CARTESIAN_POINT('',(-2.96061626983,-1.660606825079));
#410 = CARTESIAN_POINT('',(-2.949850911294,-1.82078772267));
#411 = CARTESIAN_POINT('',(-2.941837308497,-1.986872000051));
#412 = CARTESIAN_POINT('',(-2.936515950659,-2.156641747732));
#413 = CARTESIAN_POINT('',(-2.933851651541,-2.328253008661));
#414 = CARTESIAN_POINT('',(-2.933851651541,-2.671746996594));
#415 = CARTESIAN_POINT('',(-2.936515950831,-2.843358239321));
#416 = CARTESIAN_POINT('',(-2.941837307675,-3.013128009543));
#417 = CARTESIAN_POINT('',(-2.949850912848,-3.179212281532));
#418 = CARTESIAN_POINT('',(-2.960616268433,-3.339393164967));
#419 = CARTESIAN_POINT('',(-2.974203358094,-3.490810820492));
#420 = CARTESIAN_POINT('',(-3.005577508912,-3.755053223536));
#421 = CARTESIAN_POINT('',(-3.023184977323,-3.873042207607));
#422 = CARTESIAN_POINT('',(-3.043380740585,-3.976717872037));
#423 = CARTESIAN_POINT('',(-3.065835727371,-4.0603535966));
#424 = CARTESIAN_POINT('',(-3.090078524736,-4.119301852439));
#425 = CARTESIAN_POINT('',(-3.115546934106,-4.15));
#426 = CARTESIAN_POINT('',(-3.14159265359,-4.15));
#427 = ( GEOMETRIC_REPRESENTATION_CONTEXT(2) 
PARAMETRIC_REPRESENTATION_CONTEXT() REPRESENTATION_CONTEXT('2D SPACE',''
  ) );
#428 = PCURVE('',#429,#434);
#429 = CYLINDRICAL_SURFACE('',#430,1.65);
#430 = AXIS2_PLACEMENT_3D('',#431,#432,#433);
#431 = CARTESIAN_POINT('',(-9.,0.,2.5));
#432 = DIRECTION('',(1.,0.,0.));
#433 = DIRECTION('',(-0.,0.,1.));
#434 = DEFINITIONAL_REPRESENTATION('',(#435),#486);
#435 = B_SPLINE_CURVE_WITH_KNOTS('',7,(#436,#437,#438,#439,#440,#441,
    #442,#443,#444,#445,#446,#447,#448,#449,#450,#451,#452,#453,#454,
    #455,#456,#457,#458,#459,#460,#461,#462,#463,#464,#465,#466,#467,
    #468,#469,#470,#471,#472,#473,#474,#475,#476,#477,#478,#479,#480,
    #481,#482,#483,#484,#485),.UNSPECIFIED.,.F.,.F.,(8,6,6,6,6,6,6,6,8),
  (0.,0.118805405984,0.25000274367,0.381205852871,0.499972516733,
    0.618792232187,0.750005755645,0.881219283117,1.),.UNSPECIFIED.);
#436 = CARTESIAN_POINT('',(0.,1.));
#437 = CARTESIAN_POINT('',(0.12633236526,1.));
#438 = CARTESIAN_POINT('',(0.249823193666,1.006336791178));
#439 = CARTESIAN_POINT('',(0.37049654363,1.018495640474));
#440 = CARTESIAN_POINT('',(0.488154887505,1.035034352711));
#441 = CARTESIAN_POINT('',(0.602378067819,1.053875554843));
#442 = CARTESIAN_POINT('',(0.712397801127,1.073001166915));
#443 = CARTESIAN_POINT('',(0.932121461588,1.110743770847));
#444 = CARTESIAN_POINT('',(1.04344203957,1.129588318482));
#445 = CARTESIAN_POINT('',(1.151797591654,1.145956787107));
#446 = CARTESIAN_POINT('',(1.257968383586,1.158829270985));
#447 = CARTESIAN_POINT('',(1.362704293244,1.16760967698));
#448 = CARTESIAN_POINT('',(1.466711819927,1.172005365357));
#449 = CARTESIAN_POINT('',(1.674885412455,1.172005365357));
#450 = CARTESIAN_POINT('',(1.778892072753,1.167609301343));
#451 = CARTESIAN_POINT('',(1.88362557503,1.158828911143));
#452 = CARTESIAN_POINT('',(1.98979427199,1.14595689988));
#453 = CARTESIAN_POINT('',(2.09814925384,1.129588548114));
#454 = CARTESIAN_POINT('',(2.209470854762,1.110743828776));
#455 = CARTESIAN_POINT('',(2.429156516179,1.073007752055));
#456 = CARTESIAN_POINT('',(2.53918633004,1.053880589373));
#457 = CARTESIAN_POINT('',(2.653441386546,1.0350324084));
#458 = CARTESIAN_POINT('',(2.77113514779,1.01848809349));
#459 = CARTESIAN_POINT('',(2.891831386563,1.006331122886));
#460 = CARTESIAN_POINT('',(3.01531669423,1.));
#461 = CARTESIAN_POINT('',(3.26792501885,1.));
#462 = CARTESIAN_POINT('',(3.391415847256,1.006336791178));
#463 = CARTESIAN_POINT('',(3.512089197219,1.018495640474));
#464 = CARTESIAN_POINT('',(3.629747541095,1.035034352711));
#465 = CARTESIAN_POINT('',(3.743970721409,1.053875554843));
#466 = CARTESIAN_POINT('',(3.853990454717,1.073001166915));
#467 = CARTESIAN_POINT('',(4.073714452418,1.110743828776));
#468 = CARTESIAN_POINT('',(4.185036053339,1.129588548114));
#469 = CARTESIAN_POINT('',(4.293391035191,1.14595689988));
#470 = CARTESIAN_POINT('',(4.399559732149,1.158828911143));
#471 = CARTESIAN_POINT('',(4.504293234428,1.167609301343));
#472 = CARTESIAN_POINT('',(4.608299894725,1.172005365357));
#473 = CARTESIAN_POINT('',(4.81647806923,1.172005365357));
#474 = CARTESIAN_POINT('',(4.920484718929,1.167609301172));
#475 = CARTESIAN_POINT('',(5.025218232742,1.158828912084));
#476 = CARTESIAN_POINT('',(5.131386931047,1.145956898008));
#477 = CARTESIAN_POINT('',(5.23974189882,1.129588549818));
#478 = CARTESIAN_POINT('',(5.351063512075,1.110743828136));
#479 = CARTESIAN_POINT('',(5.570753228356,1.0730070549));
#480 = CARTESIAN_POINT('',(5.68078540952,1.053879460876));
#481 = CARTESIAN_POINT('',(5.795039140585,1.035031658353));
#482 = CARTESIAN_POINT('',(5.912728617379,1.018488375577));
#483 = CARTESIAN_POINT('',(6.033420089435,1.006331770646));
#484 = CARTESIAN_POINT('',(6.156903030894,1.));
#485 = CARTESIAN_POINT('',(6.28318530718,1.));
#486 = ( GEOMETRIC_REPRESENTATION_CONTEXT(2) 
PARAMETRIC_REPRESENTATION_CONTEXT() REPRESENTATION_CONTEXT('2D SPACE',''
  ) );
#487 = ADVANCED_FACE('',(#488),#90,.F.);
#488 = FACE_BOUND('',#489,.F.);
#489 = EDGE_LOOP('',(#490,#491,#514,#689,#857,#858));
#490 = ORIENTED_EDGE('',*,*,#176,.F.);
#491 = ORIENTED_EDGE('',*,*,#492,.F.);
#492 = EDGE_CURVE('',#493,#24,#495,.T.);
#493 = VERTEX_POINT('',#494);
#494 = CARTESIAN_POINT('',(2.65,2.020667218593E-16,4.15));
#495 = SEAM_CURVE('',#496,(#500,#507),.PCURVE_S1.);
#496 = LINE('',#497,#498);
#497 = CARTESIAN_POINT('',(-9.,4.041334437186E-16,4.15));
#498 = VECTOR('',#499,1.);
#499 = DIRECTION('',(1.,0.,0.));
#500 = PCURVE('',#90,#501);
#501 = DEFINITIONAL_REPRESENTATION('',(#502),#506);
#502 = LINE('',#503,#504);
#503 = CARTESIAN_POINT('',(6.28318530718,-0.));
#504 = VECTOR('',#505,1.);
#505 = DIRECTION('',(0.,1.));
#506 = ( GEOMETRIC_REPRESENTATION_CONTEXT(2) 
PARAMETRIC_REPRESENTATION_CONTEXT() REPRESENTATION_CONTEXT('2D SPACE',''
  ) );
#507 = PCURVE('',#90,#508);
#508 = DEFINITIONAL_REPRESENTATION('',(#509),#513);
#509 = LINE('',#510,#511);
#510 = CARTESIAN_POINT('',(0.,-0.));
#511 = VECTOR('',#512,1.);
#512 = DIRECTION('',(0.,1.));
#513 = ( GEOMETRIC_REPRESENTATION_CONTEXT(2) 
PARAMETRIC_REPRESENTATION_CONTEXT() REPRESENTATION_CONTEXT('2D SPACE',''
  ) );
#514 = ORIENTED_EDGE('',*,*,#515,.T.);
#515 = EDGE_CURVE('',#493,#516,#518,.T.);
#516 = VERTEX_POINT('',#517);
#517 = CARTESIAN_POINT('',(2.65,0.,0.85));
#518 = SURFACE_CURVE('',#519,(#572,#628),.PCURVE_S1.);
#519 = B_SPLINE_CURVE_WITH_KNOTS('',6,(#520,#521,#522,#523,#524,#525,
    #526,#527,#528,#529,#530,#531,#532,#533,#534,#535,#536,#537,#538,
    #539,#540,#541,#542,#543,#544,#545,#546,#547,#548,#549,#550,#551,
    #552,#553,#554,#555,#556,#557,#558,#559,#560,#561,#562,#563,#564,
    #565,#566,#567,#568,#569,#570,#571),.UNSPECIFIED.,.F.,.F.,(7,5,5,5,5
    ,5,5,5,5,5,7),(0.,0.120056125215,0.170920600271,0.293692841096,
    0.399066347728,0.499985724408,0.602410510773,0.707393458896,
    0.828420819956,0.880552549045,1.),.UNSPECIFIED.);
#520 = CARTESIAN_POINT('',(2.65,-2.22044604925E-16,4.15));
#521 = CARTESIAN_POINT('',(2.65,-0.121693246933,4.15));
#522 = CARTESIAN_POINT('',(2.643293743257,-0.242624702142,4.139229619561
    ));
#523 = CARTESIAN_POINT('',(2.630039883753,-0.361032144024,4.117941815232
    ));
#524 = CARTESIAN_POINT('',(2.610910255536,-0.475196936411,4.086898871163
    ));
#525 = CARTESIAN_POINT('',(2.587073671823,-0.583541429763,4.047367995932
    ));
#526 = CARTESIAN_POINT('',(2.548543592703,-0.727595212868,3.981663017863
    ));
#527 = CARTESIAN_POINT('',(2.536460824378,-0.769317986427,3.96085806357)
  );
#528 = CARTESIAN_POINT('',(2.523839957742,-0.809878645389,3.938882395));
#529 = CARTESIAN_POINT('',(2.510757990484,-0.84926501986,3.915813307109)
  );
#530 = CARTESIAN_POINT('',(2.497290462369,-0.887468512857,3.891724376341
    ));
#531 = CARTESIAN_POINT('',(2.450252887631,-1.013829102131,3.806248706148
    ));
#532 = CARTESIAN_POINT('',(2.415174981786,-1.096263657358,3.740270408733
    ));
#533 = CARTESIAN_POINT('',(2.379235451925,-1.171928820467,3.669585100385
    ));
#534 = CARTESIAN_POINT('',(2.343283505793,-1.240999511351,3.594797000349
    ));
#535 = CARTESIAN_POINT('',(2.308105984885,-1.30362656359,3.516328327879)
  );
#536 = CARTESIAN_POINT('',(2.245607269505,-1.408159169774,3.364207837103
    ));
#537 = CARTESIAN_POINT('',(2.217855591806,-1.451783661517,3.291391203882
    ));
#538 = CARTESIAN_POINT('',(2.191750670392,-1.490710087311,3.216295745412
    ));
#539 = CARTESIAN_POINT('',(2.167812998815,-1.524898629737,3.139156065972
    ));
#540 = CARTESIAN_POINT('',(2.146533795978,-1.554291947286,3.060166537396
    ));
#541 = CARTESIAN_POINT('',(2.110949390779,-1.602262911666,2.902212871258
    ));
#542 = CARTESIAN_POINT('',(2.096379765283,-1.621255157474,2.823355495056
    ));
#543 = CARTESIAN_POINT('',(2.085108046272,-1.635592715606,2.743339443126
    ));
#544 = CARTESIAN_POINT('',(2.077470806007,-1.645190807287,2.662544391444
    ));
#545 = CARTESIAN_POINT('',(2.073644135333,-1.65,2.581318391309));
#546 = CARTESIAN_POINT('',(2.073644135333,-1.65,2.417468586));
#547 = CARTESIAN_POINT('',(2.077585819351,-1.645046262726,2.335036123863
    ));
#548 = CARTESIAN_POINT('',(2.08545169201,-1.635160841338,2.253054082661)
  );
#549 = CARTESIAN_POINT('',(2.097055245637,-1.620395761741,2.171884216083
    ));
#550 = CARTESIAN_POINT('',(2.112040515156,-1.600839843881,2.091922136428
    ));
#551 = CARTESIAN_POINT('',(2.148251869504,-1.551922335656,1.933349784275
    ));
#552 = CARTESIAN_POINT('',(2.169634487733,-1.522314932012,1.85478002477)
  );
#553 = CARTESIAN_POINT('',(2.19362892587,-1.487953024832,1.778059033993)
  );
#554 = CARTESIAN_POINT('',(2.219748857183,-1.448892025799,1.70337783222)
  );
#555 = CARTESIAN_POINT('',(2.247480171977,-1.405169273594,1.630967227807
    ));
#556 = CARTESIAN_POINT('',(2.309519407559,-1.301088072168,1.480557254281
    ));
#557 = CARTESIAN_POINT('',(2.344214952411,-1.239156798009,1.403320835976
    ));
#558 = CARTESIAN_POINT('',(2.379646087883,-1.170960896633,1.329670584366
    ));
#559 = CARTESIAN_POINT('',(2.415058370115,-1.096355427934,1.260013007146
    ));
#560 = CARTESIAN_POINT('',(2.449638145064,-1.015173060654,1.194927049001
    ));
#561 = CARTESIAN_POINT('',(2.49661141638,-0.889418244721,1.109485614847)
  );
#562 = CARTESIAN_POINT('',(2.510430022074,-0.850310209914,1.084756602404
    ));
#563 = CARTESIAN_POINT('',(2.523845638664,-0.809959526983,1.061096867895
    ));
#564 = CARTESIAN_POINT('',(2.536776966959,-0.768375439283,1.038585569644
    ));
#565 = CARTESIAN_POINT('',(2.549141107314,-0.725571121014,1.017305955813
    ));
#566 = CARTESIAN_POINT('',(2.587689856812,-0.580731092604,0.951610419371
    ));
#567 = CARTESIAN_POINT('',(2.61130541082,-0.472831643766,0.912459878933)
  );
#568 = CARTESIAN_POINT('',(2.630245733133,-0.359191055352,0.881727543353
    ));
#569 = CARTESIAN_POINT('',(2.643363586896,-0.241367785942,0.860658215833
    ));
#570 = CARTESIAN_POINT('',(2.65,-0.121057914602,0.85));
#571 = CARTESIAN_POINT('',(2.65,-4.440892098501E-16,0.85));
#572 = PCURVE('',#90,#573);
#573 = DEFINITIONAL_REPRESENTATION('',(#574),#627);
#574 = B_SPLINE_CURVE_WITH_KNOTS('',6,(#575,#576,#577,#578,#579,#580,
    #581,#582,#583,#584,#585,#586,#587,#588,#589,#590,#591,#592,#593,
    #594,#595,#596,#597,#598,#599,#600,#601,#602,#603,#604,#605,#606,
    #607,#608,#609,#610,#611,#612,#613,#614,#615,#616,#617,#618,#619,
    #620,#621,#622,#623,#624,#625,#626),.UNSPECIFIED.,.F.,.F.,(7,5,5,5,5
    ,5,5,5,5,5,7),(0.,0.120056125215,0.170920600271,0.293692841096,
    0.399066347728,0.499985724408,0.602410510773,0.707393458896,
    0.828420819956,0.880552549045,1.),.UNSPECIFIED.);
#575 = CARTESIAN_POINT('',(0.,11.65));
#576 = CARTESIAN_POINT('',(7.375348298946E-02,11.65));
#577 = CARTESIAN_POINT('',(0.14704518943,11.643293743257));
#578 = CARTESIAN_POINT('',(0.219529848265,11.630039883753));
#579 = CARTESIAN_POINT('',(0.290840554551,11.610910255536));
#580 = CARTESIAN_POINT('',(0.360525087037,11.587073671823));
#581 = CARTESIAN_POINT('',(0.456483136813,11.548543592703));
#582 = CARTESIAN_POINT('',(0.484722231391,11.536460824378));
#583 = CARTESIAN_POINT('',(0.512656629495,11.523839957742));
#584 = CARTESIAN_POINT('',(0.540297714595,11.510757990484));
#585 = CARTESIAN_POINT('',(0.567655768719,11.497290462369));
#586 = CARTESIAN_POINT('',(0.660113465032,11.450252887631));
#587 = CARTESIAN_POINT('',(0.723900124099,11.415174981786));
#588 = CARTESIAN_POINT('',(0.786388086558,11.379235451925));
#589 = CARTESIAN_POINT('',(0.847845632755,11.343283505793));
#590 = CARTESIAN_POINT('',(0.908536174076,11.308105984885));
#591 = CARTESIAN_POINT('',(1.020399447352,11.245607269505));
#592 = CARTESIAN_POINT('',(1.071744584728,11.217855591806));
#593 = CARTESIAN_POINT('',(1.122864118827,11.191750670392));
#594 = CARTESIAN_POINT('',(1.17385904197,11.167812998815));
#595 = CARTESIAN_POINT('',(1.224842426081,11.146533795978));
#596 = CARTESIAN_POINT('',(1.324889383045,11.110949390779));
#597 = CARTESIAN_POINT('',(1.373964153069,11.096379765283));
#598 = CARTESIAN_POINT('',(1.423102281581,11.085108046272));
#599 = CARTESIAN_POINT('',(1.472284607176,11.077470806007));
#600 = CARTESIAN_POINT('',(1.521512453274,11.073644135333));
#601 = CARTESIAN_POINT('',(1.620815365583,11.073644135333));
#602 = CARTESIAN_POINT('',(1.670774397577,11.077585819351));
#603 = CARTESIAN_POINT('',(1.720685913005,11.08545169201));
#604 = CARTESIAN_POINT('',(1.770552392587,11.097055245637));
#605 = CARTESIAN_POINT('',(1.820354585718,11.112040515156));
#606 = CARTESIAN_POINT('',(1.920927989469,11.148251869504));
#607 = CARTESIAN_POINT('',(1.971719732054,11.169634487733));
#608 = CARTESIAN_POINT('',(2.022527225549,11.19362892587));
#609 = CARTESIAN_POINT('',(2.073463269126,11.219748857183));
#610 = CARTESIAN_POINT('',(2.124629223769,11.247480171977));
#611 = CARTESIAN_POINT('',(2.235483750215,11.309519407559));
#612 = CARTESIAN_POINT('',(2.295334107118,11.344214952411));
#613 = CARTESIAN_POINT('',(2.355935194756,11.379646087883));
#614 = CARTESIAN_POINT('',(2.417539809836,11.415058370115));
#615 = CARTESIAN_POINT('',(2.480405136634,11.449638145064));
#616 = CARTESIAN_POINT('',(2.572547304109,11.49661141638));
#617 = CARTESIAN_POINT('',(2.600574972858,11.510430022074));
#618 = CARTESIAN_POINT('',(2.628899561267,11.523845638664));
#619 = CARTESIAN_POINT('',(2.657532106437,11.536776966959));
#620 = CARTESIAN_POINT('',(2.686484869455,11.549141107314));
#621 = CARTESIAN_POINT('',(2.782874302515,11.587689856812));
#622 = CARTESIAN_POINT('',(2.852229309509,11.61130541082));
#623 = CARTESIAN_POINT('',(2.923189877755,11.630245733133));
#624 = CARTESIAN_POINT('',(2.995309229397,11.643363586896));
#625 = CARTESIAN_POINT('',(3.068224220498,11.65));
#626 = CARTESIAN_POINT('',(3.14159265359,11.65));
#627 = ( GEOMETRIC_REPRESENTATION_CONTEXT(2) 
PARAMETRIC_REPRESENTATION_CONTEXT() REPRESENTATION_CONTEXT('2D SPACE',''
  ) );
#628 = PCURVE('',#629,#634);
#629 = CYLINDRICAL_SURFACE('',#630,2.65);
#630 = AXIS2_PLACEMENT_3D('',#631,#632,#633);
#631 = CARTESIAN_POINT('',(0.,0.,0.));
#632 = DIRECTION('',(-0.,-0.,-1.));
#633 = DIRECTION('',(1.,0.,0.));
#634 = DEFINITIONAL_REPRESENTATION('',(#635),#688);
#635 = B_SPLINE_CURVE_WITH_KNOTS('',6,(#636,#637,#638,#639,#640,#641,
    #642,#643,#644,#645,#646,#647,#648,#649,#650,#651,#652,#653,#654,
    #655,#656,#657,#658,#659,#660,#661,#662,#663,#664,#665,#666,#667,
    #668,#669,#670,#671,#672,#673,#674,#675,#676,#677,#678,#679,#680,
    #681,#682,#683,#684,#685,#686,#687),.UNSPECIFIED.,.F.,.F.,(7,5,5,5,5
    ,5,5,5,5,5,7),(0.,0.120056125215,0.170920600271,0.293692841096,
    0.399066347728,0.499985724408,0.602410510773,0.707393458896,
    0.828420819956,0.880552549045,1.),.UNSPECIFIED.);
#636 = CARTESIAN_POINT('',(-6.28318530718,-4.15));
#637 = CARTESIAN_POINT('',(-6.237263327205,-4.15));
#638 = CARTESIAN_POINT('',(-6.191628733635,-4.139229619561));
#639 = CARTESIAN_POINT('',(-6.146772759865,-4.117941815232));
#640 = CARTESIAN_POINT('',(-6.103178647651,-4.086898871163));
#641 = CARTESIAN_POINT('',(-6.06135807415,-4.047367995932));
#642 = CARTESIAN_POINT('',(-6.005087280693,-3.981663017863));
#643 = CARTESIAN_POINT('',(-5.988699339327,-3.96085806357));
#644 = CARTESIAN_POINT('',(-5.972674182162,-3.938882395));
#645 = CARTESIAN_POINT('',(-5.957017047914,-3.915813307109));
#646 = CARTESIAN_POINT('',(-5.94173338421,-3.891724376341));
#647 = CARTESIAN_POINT('',(-5.890853574895,-3.806248706148));
#648 = CARTESIAN_POINT('',(-5.857082525482,-3.740270408733));
#649 = CARTESIAN_POINT('',(-5.825508824908,-3.669585100385));
#650 = CARTESIAN_POINT('',(-5.796148444608,-3.594797000349));
#651 = CARTESIAN_POINT('',(-5.769052696396,-3.516328327879));
#652 = CARTESIAN_POINT('',(-5.723093661935,-3.364207837103));
#653 = CARTESIAN_POINT('',(-5.703590435189,-3.291391203882));
#654 = CARTESIAN_POINT('',(-5.685910365252,-3.216295745412));
#655 = CARTESIAN_POINT('',(-5.670164263128,-3.139156065972));
#656 = CARTESIAN_POINT('',(-5.656471824429,-3.060166537396));
#657 = CARTESIAN_POINT('',(-5.633932863843,-2.902212871258));
#658 = CARTESIAN_POINT('',(-5.624901228135,-2.823355495056));
#659 = CARTESIAN_POINT('',(-5.618019270763,-2.743339443126));
#660 = CARTESIAN_POINT('',(-5.613390606577,-2.662544391444));
#661 = CARTESIAN_POINT('',(-5.611071419356,-2.581318391309));
#662 = CARTESIAN_POINT('',(-5.611071419356,-2.417468586));
#663 = CARTESIAN_POINT('',(-5.613460310818,-2.335036123863));
#664 = CARTESIAN_POINT('',(-5.618227543944,-2.253054082661));
#665 = CARTESIAN_POINT('',(-5.625313696812,-2.171884216083));
#666 = CARTESIAN_POINT('',(-5.634609463471,-2.091922136428));
#667 = CARTESIAN_POINT('',(-5.657576261351,-1.933349784275));
#668 = CARTESIAN_POINT('',(-5.671357000985,-1.85478002477));
#669 = CARTESIAN_POINT('',(-5.68716893325,-1.778059033993));
#670 = CARTESIAN_POINT('',(-5.704894301127,-1.70337783222));
#671 = CARTESIAN_POINT('',(-5.724424701919,-1.630967227807));
#672 = CARTESIAN_POINT('',(-5.770148598548,-1.480557254281));
#673 = CARTESIAN_POINT('',(-5.796926662745,-1.403320835976));
#674 = CARTESIAN_POINT('',(-5.825904323779,-1.329670584366));
#675 = CARTESIAN_POINT('',(-5.8570329952,-1.260013007146));
#676 = CARTESIAN_POINT('',(-5.890297332073,-1.194927049001));
#677 = CARTESIAN_POINT('',(-5.940954476059,-1.109485614847));
#678 = CARTESIAN_POINT('',(-5.956603949038,-1.084756602404));
#679 = CARTESIAN_POINT('',(-5.972645807783,-1.061096867895));
#680 = CARTESIAN_POINT('',(-5.989074172566,-1.038585569644));
#681 = CARTESIAN_POINT('',(-6.005883398739,-1.017305955813));
#682 = CARTESIAN_POINT('',(-6.062442676745,-0.951610419371));
#683 = CARTESIAN_POINT('',(-6.104081787197,-0.912459878933));
#684 = CARTESIAN_POINT('',(-6.147470217828,-0.881727543353));
#685 = CARTESIAN_POINT('',(-6.192103043644,-0.860658215833));
#686 = CARTESIAN_POINT('',(-6.237503075254,-0.85));
#687 = CARTESIAN_POINT('',(-6.28318530718,-0.85));
#688 = ( GEOMETRIC_REPRESENTATION_CONTEXT(2) 
PARAMETRIC_REPRESENTATION_CONTEXT() REPRESENTATION_CONTEXT('2D SPACE',''
  ) );
#689 = ORIENTED_EDGE('',*,*,#690,.T.);
#690 = EDGE_CURVE('',#516,#493,#691,.T.);
#691 = SURFACE_CURVE('',#692,(#745,#801),.PCURVE_S1.);
#692 = B_SPLINE_CURVE_WITH_KNOTS('',6,(#693,#694,#695,#696,#697,#698,
    #699,#700,#701,#702,#703,#704,#705,#706,#707,#708,#709,#710,#711,
    #712,#713,#714,#715,#716,#717,#718,#719,#720,#721,#722,#723,#724,
    #725,#726,#727,#728,#729,#730,#731,#732,#733,#734,#735,#736,#737,
    #738,#739,#740,#741,#742,#743,#744),.UNSPECIFIED.,.F.,.F.,(7,5,5,5,5
    ,5,5,5,5,5,7),(0.,0.120056096865,0.170920567228,0.293692812945,
    0.399066323776,0.499985704478,0.602410494925,0.707393447232,
    0.828420813115,0.880552544283,1.),.UNSPECIFIED.);
#693 = CARTESIAN_POINT('',(2.65,-1.010333609297E-16,0.85));
#694 = CARTESIAN_POINT('',(2.65,0.121693246986,0.85));
#695 = CARTESIAN_POINT('',(2.643293743251,0.24262470213,0.860770380448)
  );
#696 = CARTESIAN_POINT('',(2.63003988376,0.361032143973,0.882058184757)
  );
#697 = CARTESIAN_POINT('',(2.610910255544,0.475196936396,0.913101128821)
  );
#698 = CARTESIAN_POINT('',(2.58707367181,0.583541429811,0.952632004089)
  );
#699 = CARTESIAN_POINT('',(2.548543591059,0.727595219016,1.018336984941)
  );
#700 = CARTESIAN_POINT('',(2.536460824917,0.769317985476,1.039141935401)
  );
#701 = CARTESIAN_POINT('',(2.523839959484,0.809878639896,1.061117601925)
  );
#702 = CARTESIAN_POINT('',(2.510757990882,0.849265017902,1.084186692265)
  );
#703 = CARTESIAN_POINT('',(2.497290460548,0.887468517748,1.108275626967)
  );
#704 = CARTESIAN_POINT('',(2.450252887631,1.013829102131,1.193751293852)
  );
#705 = CARTESIAN_POINT('',(2.415174981786,1.096263657358,1.259729591266)
  );
#706 = CARTESIAN_POINT('',(2.379235451925,1.171928820467,1.330414899615)
  );
#707 = CARTESIAN_POINT('',(2.343283505793,1.240999511351,1.405202999651)
  );
#708 = CARTESIAN_POINT('',(2.308105984885,1.30362656359,1.483671672121)
  );
#709 = CARTESIAN_POINT('',(2.245607269505,1.408159169774,1.635792162897)
  );
#710 = CARTESIAN_POINT('',(2.217855591806,1.451783661517,1.708608796118)
  );
#711 = CARTESIAN_POINT('',(2.191750670392,1.490710087311,1.783704254588)
  );
#712 = CARTESIAN_POINT('',(2.167812998815,1.524898629737,1.860843934028)
  );
#713 = CARTESIAN_POINT('',(2.146533795978,1.554291947286,1.939833462604)
  );
#714 = CARTESIAN_POINT('',(2.110949390779,1.602262911666,2.097787128742)
  );
#715 = CARTESIAN_POINT('',(2.096379765283,1.621255157474,2.176644504944)
  );
#716 = CARTESIAN_POINT('',(2.085108046272,1.635592715606,2.256660556874)
  );
#717 = CARTESIAN_POINT('',(2.077470806007,1.645190807287,2.337455608556)
  );
#718 = CARTESIAN_POINT('',(2.073644135333,1.65,2.418681608691));
#719 = CARTESIAN_POINT('',(2.073644135333,1.65,2.582531414));
#720 = CARTESIAN_POINT('',(2.077585819351,1.645046262726,2.664963876137)
  );
#721 = CARTESIAN_POINT('',(2.08545169201,1.635160841338,2.746945917339)
  );
#722 = CARTESIAN_POINT('',(2.097055245637,1.620395761741,2.828115783917)
  );
#723 = CARTESIAN_POINT('',(2.112040515156,1.600839843881,2.908077863572)
  );
#724 = CARTESIAN_POINT('',(2.148251869504,1.551922335656,3.066650215725)
  );
#725 = CARTESIAN_POINT('',(2.169634487733,1.522314932012,3.14521997523)
  );
#726 = CARTESIAN_POINT('',(2.19362892587,1.487953024832,3.221940966007)
  );
#727 = CARTESIAN_POINT('',(2.219748857183,1.448892025799,3.29662216778)
  );
#728 = CARTESIAN_POINT('',(2.247480171977,1.405169273594,3.369032772193)
  );
#729 = CARTESIAN_POINT('',(2.309519407559,1.301088072168,3.519442745719)
  );
#730 = CARTESIAN_POINT('',(2.344214952411,1.239156798009,3.596679164024)
  );
#731 = CARTESIAN_POINT('',(2.379646087883,1.170960896633,3.670329415634)
  );
#732 = CARTESIAN_POINT('',(2.415058370115,1.096355427934,3.739986992854)
  );
#733 = CARTESIAN_POINT('',(2.449638145064,1.015173060654,3.805072950999)
  );
#734 = CARTESIAN_POINT('',(2.49661141638,0.889418244721,3.890514385153)
  );
#735 = CARTESIAN_POINT('',(2.510430022074,0.850310209914,3.915243397596)
  );
#736 = CARTESIAN_POINT('',(2.523845638664,0.809959526983,3.938903132105)
  );
#737 = CARTESIAN_POINT('',(2.536776966959,0.768375439283,3.961414430356)
  );
#738 = CARTESIAN_POINT('',(2.549141107314,0.725571121014,3.982694044188)
  );
#739 = CARTESIAN_POINT('',(2.587689856812,0.580731092604,4.048389580629)
  );
#740 = CARTESIAN_POINT('',(2.61130541082,0.472831643766,4.087540121067)
  );
#741 = CARTESIAN_POINT('',(2.630245733133,0.359191055352,4.118272456647)
  );
#742 = CARTESIAN_POINT('',(2.643363586896,0.241367785942,4.139341784167)
  );
#743 = CARTESIAN_POINT('',(2.65,0.121057914602,4.15));
#744 = CARTESIAN_POINT('',(2.65,2.020667218593E-16,4.15));
#745 = PCURVE('',#90,#746);
#746 = DEFINITIONAL_REPRESENTATION('',(#747),#800);
#747 = B_SPLINE_CURVE_WITH_KNOTS('',6,(#748,#749,#750,#751,#752,#753,
    #754,#755,#756,#757,#758,#759,#760,#761,#762,#763,#764,#765,#766,
    #767,#768,#769,#770,#771,#772,#773,#774,#775,#776,#777,#778,#779,
    #780,#781,#782,#783,#784,#785,#786,#787,#788,#789,#790,#791,#792,
    #793,#794,#795,#796,#797,#798,#799),.UNSPECIFIED.,.F.,.F.,(7,5,5,5,5
    ,5,5,5,5,5,7),(0.,0.120056096865,0.170920567228,0.293692812945,
    0.399066323776,0.499985704478,0.602410494925,0.707393447232,
    0.828420813115,0.880552544283,1.),.UNSPECIFIED.);
#748 = CARTESIAN_POINT('',(3.14159265359,11.65));
#749 = CARTESIAN_POINT('',(3.215346136611,11.65));
#750 = CARTESIAN_POINT('',(3.288637843012,11.643293743251));
#751 = CARTESIAN_POINT('',(3.361122501824,11.63003988376));
#752 = CARTESIAN_POINT('',(3.432433208129,11.610910255544));
#753 = CARTESIAN_POINT('',(3.502117740659,11.58707367181));
#754 = CARTESIAN_POINT('',(3.598075794498,11.548543591059));
#755 = CARTESIAN_POINT('',(3.626314884171,11.536460824917));
#756 = CARTESIAN_POINT('',(3.654249279258,11.523839959484));
#757 = CARTESIAN_POINT('',(3.681890366962,11.510757990882));
#758 = CARTESIAN_POINT('',(3.709248425887,11.497290460548));
#759 = CARTESIAN_POINT('',(3.801706118622,11.450252887631));
#760 = CARTESIAN_POINT('',(3.865492777688,11.415174981786));
#761 = CARTESIAN_POINT('',(3.927980740148,11.379235451925));
#762 = CARTESIAN_POINT('',(3.989438286345,11.343283505793));
#763 = CARTESIAN_POINT('',(4.050128827666,11.308105984885));
#764 = CARTESIAN_POINT('',(4.161992100942,11.245607269505));
#765 = CARTESIAN_POINT('',(4.213337238318,11.217855591806));
#766 = CARTESIAN_POINT('',(4.264456772417,11.191750670392));
#767 = CARTESIAN_POINT('',(4.31545169556,11.167812998815));
#768 = CARTESIAN_POINT('',(4.366435079671,11.146533795978));
#769 = CARTESIAN_POINT('',(4.466482036635,11.110949390779));
#770 = CARTESIAN_POINT('',(4.515556806659,11.096379765283));
#771 = CARTESIAN_POINT('',(4.564694935171,11.085108046272));
#772 = CARTESIAN_POINT('',(4.613877260765,11.077470806007));
#773 = CARTESIAN_POINT('',(4.663105106864,11.073644135333));
#774 = CARTESIAN_POINT('',(4.762408019172,11.073644135333));
#775 = CARTESIAN_POINT('',(4.812367051167,11.077585819351));
#776 = CARTESIAN_POINT('',(4.862278566594,11.08545169201));
#777 = CARTESIAN_POINT('',(4.912145046177,11.097055245637));
#778 = CARTESIAN_POINT('',(4.961947239308,11.112040515156));
#779 = CARTESIAN_POINT('',(5.062520643059,11.148251869504));
#780 = CARTESIAN_POINT('',(5.113312385644,11.169634487733));
#781 = CARTESIAN_POINT('',(5.164119879139,11.19362892587));
#782 = CARTESIAN_POINT('',(5.215055922716,11.219748857183));
#783 = CARTESIAN_POINT('',(5.266221877359,11.247480171977));
#784 = CARTESIAN_POINT('',(5.377076403804,11.309519407559));
#785 = CARTESIAN_POINT('',(5.436926760707,11.344214952411));
#786 = CARTESIAN_POINT('',(5.497527848346,11.379646087883));
#787 = CARTESIAN_POINT('',(5.559132463425,11.415058370115));
#788 = CARTESIAN_POINT('',(5.621997790224,11.449638145064));
#789 = CARTESIAN_POINT('',(5.714139957699,11.49661141638));
#790 = CARTESIAN_POINT('',(5.742167626448,11.510430022074));
#791 = CARTESIAN_POINT('',(5.770492214857,11.523845638664));
#792 = CARTESIAN_POINT('',(5.799124760027,11.536776966959));
#793 = CARTESIAN_POINT('',(5.828077523045,11.549141107314));
#794 = CARTESIAN_POINT('',(5.924466956105,11.587689856812));
#795 = CARTESIAN_POINT('',(5.993821963099,11.61130541082));
#796 = CARTESIAN_POINT('',(6.064782531344,11.630245733133));
#797 = CARTESIAN_POINT('',(6.136901882987,11.643363586896));
#798 = CARTESIAN_POINT('',(6.209816874087,11.65));
#799 = CARTESIAN_POINT('',(6.28318530718,11.65));
#800 = ( GEOMETRIC_REPRESENTATION_CONTEXT(2) 
PARAMETRIC_REPRESENTATION_CONTEXT() REPRESENTATION_CONTEXT('2D SPACE',''
  ) );
#801 = PCURVE('',#629,#802);
#802 = DEFINITIONAL_REPRESENTATION('',(#803),#856);
#803 = B_SPLINE_CURVE_WITH_KNOTS('',6,(#804,#805,#806,#807,#808,#809,
    #810,#811,#812,#813,#814,#815,#816,#817,#818,#819,#820,#821,#822,
    #823,#824,#825,#826,#827,#828,#829,#830,#831,#832,#833,#834,#835,
    #836,#837,#838,#839,#840,#841,#842,#843,#844,#845,#846,#847,#848,
    #849,#850,#851,#852,#853,#854,#855),.UNSPECIFIED.,.F.,.F.,(7,5,5,5,5
    ,5,5,5,5,5,7),(0.,0.120056096865,0.170920567228,0.293692812945,
    0.399066323776,0.499985704478,0.602410494925,0.707393447232,
    0.828420813115,0.880552544283,1.),.UNSPECIFIED.);
#804 = CARTESIAN_POINT('',(0.,-0.85));
#805 = CARTESIAN_POINT('',(-4.592197999454E-02,-0.85));
#806 = CARTESIAN_POINT('',(-9.155657354029E-02,-0.860770380448));
#807 = CARTESIAN_POINT('',(-0.136412547296,-0.882058184757));
#808 = CARTESIAN_POINT('',(-0.180006659522,-0.913101128821));
#809 = CARTESIAN_POINT('',(-0.221827233048,-0.952632004089));
#810 = CARTESIAN_POINT('',(-0.278098028888,-1.018336984941));
#811 = CARTESIAN_POINT('',(-0.294485967448,-1.039141935401));
#812 = CARTESIAN_POINT('',(-0.310511122841,-1.061117601925));
#813 = CARTESIAN_POINT('',(-0.326168258515,-1.084186692265));
#814 = CARTESIAN_POINT('',(-0.341451924939,-1.108275626967));
#815 = CARTESIAN_POINT('',(-0.392331732284,-1.193751293852));
#816 = CARTESIAN_POINT('',(-0.426102781698,-1.259729591266));
#817 = CARTESIAN_POINT('',(-0.457676482271,-1.330414899615));
#818 = CARTESIAN_POINT('',(-0.487036862572,-1.405202999651));
#819 = CARTESIAN_POINT('',(-0.514132610783,-1.483671672121));
#820 = CARTESIAN_POINT('',(-0.560091645245,-1.635792162897));
#821 = CARTESIAN_POINT('',(-0.579594871991,-1.708608796118));
#822 = CARTESIAN_POINT('',(-0.597274941927,-1.783704254588));
#823 = CARTESIAN_POINT('',(-0.613021044052,-1.860843934028));
#824 = CARTESIAN_POINT('',(-0.62671348275,-1.939833462604));
#825 = CARTESIAN_POINT('',(-0.649252443336,-2.097787128742));
#826 = CARTESIAN_POINT('',(-0.658284079044,-2.176644504944));
#827 = CARTESIAN_POINT('',(-0.665166036416,-2.256660556874));
#828 = CARTESIAN_POINT('',(-0.669794700603,-2.337455608556));
#829 = CARTESIAN_POINT('',(-0.672113887824,-2.418681608691));
#830 = CARTESIAN_POINT('',(-0.672113887824,-2.582531414));
#831 = CARTESIAN_POINT('',(-0.669724996362,-2.664963876137));
#832 = CARTESIAN_POINT('',(-0.664957763236,-2.746945917339));
#833 = CARTESIAN_POINT('',(-0.657871610367,-2.828115783917));
#834 = CARTESIAN_POINT('',(-0.648575843708,-2.908077863572));
#835 = CARTESIAN_POINT('',(-0.625609045828,-3.066650215725));
#836 = CARTESIAN_POINT('',(-0.611828306195,-3.14521997523));
#837 = CARTESIAN_POINT('',(-0.59601637393,-3.221940966007));
#838 = CARTESIAN_POINT('',(-0.578291006053,-3.29662216778));
#839 = CARTESIAN_POINT('',(-0.55876060526,-3.369032772193));
#840 = CARTESIAN_POINT('',(-0.513036708631,-3.519442745719));
#841 = CARTESIAN_POINT('',(-0.486258644434,-3.596679164024));
#842 = CARTESIAN_POINT('',(-0.4572809834,-3.670329415634));
#843 = CARTESIAN_POINT('',(-0.42615231198,-3.739986992854));
#844 = CARTESIAN_POINT('',(-0.392887975107,-3.805072950999));
#845 = CARTESIAN_POINT('',(-0.342230831121,-3.890514385153));
#846 = CARTESIAN_POINT('',(-0.326581358141,-3.915243397596));
#847 = CARTESIAN_POINT('',(-0.310539499397,-3.938903132105));
#848 = CARTESIAN_POINT('',(-0.294111134613,-3.961414430356));
#849 = CARTESIAN_POINT('',(-0.27730190844,-3.982694044188));
#850 = CARTESIAN_POINT('',(-0.220742630435,-4.048389580629));
#851 = CARTESIAN_POINT('',(-0.179103519982,-4.087540121067));
#852 = CARTESIAN_POINT('',(-0.135715089351,-4.118272456647));
#853 = CARTESIAN_POINT('',(-9.108226353581E-02,-4.139341784167));
#854 = CARTESIAN_POINT('',(-4.568223192534E-02,-4.15));
#855 = CARTESIAN_POINT('',(0.,-4.15));
#856 = ( GEOMETRIC_REPRESENTATION_CONTEXT(2) 
PARAMETRIC_REPRESENTATION_CONTEXT() REPRESENTATION_CONTEXT('2D SPACE',''
  ) );
#857 = ORIENTED_EDGE('',*,*,#492,.T.);
#858 = ORIENTED_EDGE('',*,*,#21,.F.);
#859 = ADVANCED_FACE('',(#860,#863),#304,.F.);
#860 = FACE_BOUND('',#861,.F.);
#861 = EDGE_LOOP('',(#862));
#862 = ORIENTED_EDGE('',*,*,#289,.T.);
#863 = FACE_BOUND('',#864,.F.);
#864 = EDGE_LOOP('',(#865));
#865 = ORIENTED_EDGE('',*,*,#866,.F.);
#866 = EDGE_CURVE('',#867,#867,#869,.T.);
#867 = VERTEX_POINT('',#868);
#868 = CARTESIAN_POINT('',(2.65,0.,0.));
#869 = SURFACE_CURVE('',#870,(#875,#882),.PCURVE_S1.);
#870 = CIRCLE('',#871,2.65);
#871 = AXIS2_PLACEMENT_3D('',#872,#873,#874);
#872 = CARTESIAN_POINT('',(0.,0.,0.));
#873 = DIRECTION('',(0.,0.,1.));
#874 = DIRECTION('',(1.,0.,0.));
#875 = PCURVE('',#304,#876);
#876 = DEFINITIONAL_REPRESENTATION('',(#877),#881);
#877 = CIRCLE('',#878,2.65);
#878 = AXIS2_PLACEMENT_2D('',#879,#880);
#879 = CARTESIAN_POINT('',(5.127900497023E-16,-6.990076196319E-16));
#880 = DIRECTION('',(1.,0.));
#881 = ( GEOMETRIC_REPRESENTATION_CONTEXT(2) 
PARAMETRIC_REPRESENTATION_CONTEXT() REPRESENTATION_CONTEXT('2D SPACE',''
  ) );
#882 = PCURVE('',#629,#883);
#883 = DEFINITIONAL_REPRESENTATION('',(#884),#888);
#884 = LINE('',#885,#886);
#885 = CARTESIAN_POINT('',(-0.,0.));
#886 = VECTOR('',#887,1.);
#887 = DIRECTION('',(-1.,0.));
#888 = ( GEOMETRIC_REPRESENTATION_CONTEXT(2) 
PARAMETRIC_REPRESENTATION_CONTEXT() REPRESENTATION_CONTEXT('2D SPACE',''
  ) );
#889 = ADVANCED_FACE('',(#890,#893),#163,.T.);
#890 = FACE_BOUND('',#891,.T.);
#891 = EDGE_LOOP('',(#892));
#892 = ORIENTED_EDGE('',*,*,#148,.T.);
#893 = FACE_BOUND('',#894,.T.);
#894 = EDGE_LOOP('',(#895));
#895 = ORIENTED_EDGE('',*,*,#896,.T.);
#896 = EDGE_CURVE('',#897,#897,#899,.T.);
#897 = VERTEX_POINT('',#898);
#898 = CARTESIAN_POINT('',(2.65,0.,5.));
#899 = SURFACE_CURVE('',#900,(#905,#916),.PCURVE_S1.);
#900 = CIRCLE('',#901,2.65);
#901 = AXIS2_PLACEMENT_3D('',#902,#903,#904);
#902 = CARTESIAN_POINT('',(0.,0.,5.));
#903 = DIRECTION('',(0.,0.,-1.));
#904 = DIRECTION('',(1.,0.,0.));
#905 = PCURVE('',#163,#906);
#906 = DEFINITIONAL_REPRESENTATION('',(#907),#915);
#907 = ( BOUNDED_CURVE() B_SPLINE_CURVE(2,(#908,#909,#910,#911,#912,#913
,#914),.UNSPECIFIED.,.T.,.F.) B_SPLINE_CURVE_WITH_KNOTS((1,2,2,2,2,1),(
    -2.094395102393,0.,2.094395102393,4.188790204786,6.28318530718,
8.377580409573),.UNSPECIFIED.) CURVE() GEOMETRIC_REPRESENTATION_ITEM() 
RATIONAL_B_SPLINE_CURVE((1.,0.5,1.,0.5,1.,0.5,1.)) REPRESENTATION_ITEM(
  '') );
#908 = CARTESIAN_POINT('',(2.65,-6.990076196319E-16));
#909 = CARTESIAN_POINT('',(2.65,-4.589934640058));
#910 = CARTESIAN_POINT('',(-1.325,-2.294967320029));
#911 = CARTESIAN_POINT('',(-5.3,-1.34807042318E-15));
#912 = CARTESIAN_POINT('',(-1.325,2.294967320029));
#913 = CARTESIAN_POINT('',(2.65,4.589934640058));
#914 = CARTESIAN_POINT('',(2.65,-6.990076196319E-16));
#915 = ( GEOMETRIC_REPRESENTATION_CONTEXT(2) 
PARAMETRIC_REPRESENTATION_CONTEXT() REPRESENTATION_CONTEXT('2D SPACE',''
  ) );
#916 = PCURVE('',#629,#917);
#917 = DEFINITIONAL_REPRESENTATION('',(#918),#922);
#918 = LINE('',#919,#920);
#919 = CARTESIAN_POINT('',(-6.28318530718,-5.));
#920 = VECTOR('',#921,1.);
#921 = DIRECTION('',(1.,-0.));
#922 = ( GEOMETRIC_REPRESENTATION_CONTEXT(2) 
PARAMETRIC_REPRESENTATION_CONTEXT() REPRESENTATION_CONTEXT('2D SPACE',''
  ) );
#923 = ADVANCED_FACE('',(#924),#429,.F.);
#924 = FACE_BOUND('',#925,.F.);
#925 = EDGE_LOOP('',(#926,#1246,#1267,#1268));
#926 = ORIENTED_EDGE('',*,*,#927,.F.);
#927 = EDGE_CURVE('',#928,#928,#930,.T.);
#928 = VERTEX_POINT('',#929);
#929 = CARTESIAN_POINT('',(-2.65,4.041334437186E-16,4.15));
#930 = SURFACE_CURVE('',#931,(#1034,#1140),.PCURVE_S1.);
#931 = B_SPLINE_CURVE_WITH_KNOTS('',6,(#932,#933,#934,#935,#936,#937,
    #938,#939,#940,#941,#942,#943,#944,#945,#946,#947,#948,#949,#950,
    #951,#952,#953,#954,#955,#956,#957,#958,#959,#960,#961,#962,#963,
    #964,#965,#966,#967,#968,#969,#970,#971,#972,#973,#974,#975,#976,
    #977,#978,#979,#980,#981,#982,#983,#984,#985,#986,#987,#988,#989,
    #990,#991,#992,#993,#994,#995,#996,#997,#998,#999,#1000,#1001,#1002,
    #1003,#1004,#1005,#1006,#1007,#1008,#1009,#1010,#1011,#1012,#1013,
    #1014,#1015,#1016,#1017,#1018,#1019,#1020,#1021,#1022,#1023,#1024,
    #1025,#1026,#1027,#1028,#1029,#1030,#1031,#1032,#1033),
  .UNSPECIFIED.,.T.,.F.,(7,5,5,5,5,5,5,5,5,5,5,5,5,5,5,5,5,5,5,5,7),(0.,
    5.992964084549E-02,8.532017978255E-02,0.146605651767,0.199206020101,
    0.249582974946,0.300711400501,0.35311680976,0.413531272311,
    0.461666216798,0.499238887378,0.559358310806,0.584829259161,
    0.646308818477,0.699075773726,0.749612273869,0.800902624653,
    0.853474003385,0.914079800316,0.940185346376,1.),.UNSPECIFIED.);
#932 = CARTESIAN_POINT('',(-2.65,4.440892098501E-16,4.15));
#933 = CARTESIAN_POINT('',(-2.65,-0.121693246933,4.15));
#934 = CARTESIAN_POINT('',(-2.643293743257,-0.242624702142,
    4.139229619561));
#935 = CARTESIAN_POINT('',(-2.630039883753,-0.361032144024,
    4.117941815232));
#936 = CARTESIAN_POINT('',(-2.610910255536,-0.475196936411,
    4.086898871163));
#937 = CARTESIAN_POINT('',(-2.587073671823,-0.583541429763,
    4.047367995932));
#938 = CARTESIAN_POINT('',(-2.548543592703,-0.727595212868,
    3.981663017863));
#939 = CARTESIAN_POINT('',(-2.536460824378,-0.769317986427,3.96085806357
    ));
#940 = CARTESIAN_POINT('',(-2.523839957742,-0.809878645389,3.938882395)
  );
#941 = CARTESIAN_POINT('',(-2.510757990484,-0.84926501986,3.915813307109
    ));
#942 = CARTESIAN_POINT('',(-2.497290462369,-0.887468512857,
    3.891724376341));
#943 = CARTESIAN_POINT('',(-2.450252887631,-1.013829102131,
    3.806248706148));
#944 = CARTESIAN_POINT('',(-2.415174981786,-1.096263657358,
    3.740270408734));
#945 = CARTESIAN_POINT('',(-2.379235451925,-1.171928820467,
    3.669585100385));
#946 = CARTESIAN_POINT('',(-2.343283505793,-1.240999511351,
    3.594797000349));
#947 = CARTESIAN_POINT('',(-2.308105984885,-1.30362656359,3.516328327879
    ));
#948 = CARTESIAN_POINT('',(-2.245607269505,-1.408159169774,
    3.364207837103));
#949 = CARTESIAN_POINT('',(-2.217855591806,-1.451783661517,
    3.291391203882));
#950 = CARTESIAN_POINT('',(-2.191750670392,-1.490710087311,
    3.216295745412));
#951 = CARTESIAN_POINT('',(-2.167812998815,-1.524898629737,
    3.139156065972));
#952 = CARTESIAN_POINT('',(-2.146533795978,-1.554291947286,
    3.060166537396));
#953 = CARTESIAN_POINT('',(-2.110949390779,-1.602262911666,
    2.902212871258));
#954 = CARTESIAN_POINT('',(-2.096379765283,-1.621255157474,
    2.823355495056));
#955 = CARTESIAN_POINT('',(-2.085108046272,-1.635592715606,
    2.743339443126));
#956 = CARTESIAN_POINT('',(-2.077470806007,-1.645190807287,
    2.662544391444));
#957 = CARTESIAN_POINT('',(-2.073644135333,-1.65,2.581318391309));
#958 = CARTESIAN_POINT('',(-2.073644135333,-1.65,2.417468586));
#959 = CARTESIAN_POINT('',(-2.077585819351,-1.645046262726,
    2.335036123863));
#960 = CARTESIAN_POINT('',(-2.08545169201,-1.635160841338,2.253054082661
    ));
#961 = CARTESIAN_POINT('',(-2.097055245637,-1.620395761741,
    2.171884216083));
#962 = CARTESIAN_POINT('',(-2.112040515156,-1.600839843881,
    2.091922136428));
#963 = CARTESIAN_POINT('',(-2.148251869504,-1.551922335656,
    1.933349784275));
#964 = CARTESIAN_POINT('',(-2.169634487733,-1.522314932012,1.85478002477
    ));
#965 = CARTESIAN_POINT('',(-2.19362892587,-1.487953024832,1.778059033993
    ));
#966 = CARTESIAN_POINT('',(-2.219748857183,-1.448892025799,1.70337783222
    ));
#967 = CARTESIAN_POINT('',(-2.247480171977,-1.405169273594,
    1.630967227807));
#968 = CARTESIAN_POINT('',(-2.309519407559,-1.301088072168,
    1.480557254282));
#969 = CARTESIAN_POINT('',(-2.344214952411,-1.239156798009,
    1.403320835976));
#970 = CARTESIAN_POINT('',(-2.379646087883,-1.170960896633,
    1.329670584366));
#971 = CARTESIAN_POINT('',(-2.415058370115,-1.096355427934,
    1.260013007146));
#972 = CARTESIAN_POINT('',(-2.449638145064,-1.015173060654,
    1.194927049001));
#973 = CARTESIAN_POINT('',(-2.508627767181,-0.85724858864,1.087628626457
    ));
#974 = CARTESIAN_POINT('',(-2.533725822803,-0.782825396307,
    1.043365901048));
#975 = CARTESIAN_POINT('',(-2.557210035678,-0.704131100823,
    1.002997783987));
#976 = CARTESIAN_POINT('',(-2.578519830379,-0.621344385375,
    0.967095383163));
#977 = CARTESIAN_POINT('',(-2.597106764039,-0.534703045998,
    0.936233825235));
#978 = CARTESIAN_POINT('',(-2.624432841809,-0.374102324119,
    0.891307322619));
#979 = CARTESIAN_POINT('',(-2.634433324334,-0.301559751965,
    0.875050702468));
#980 = CARTESIAN_POINT('',(-2.642153480735,-0.227362101637,
    0.862601146841));
#981 = CARTESIAN_POINT('',(-2.647380881182,-0.152018578616,
    0.854206936367));
#982 = CARTESIAN_POINT('',(-2.65,-7.605429357099E-02,0.85));
#983 = CARTESIAN_POINT('',(-2.65,0.121693246933,0.85));
#984 = CARTESIAN_POINT('',(-2.643293743257,0.242624702142,0.860770380439
    ));
#985 = CARTESIAN_POINT('',(-2.630039883753,0.361032144025,0.882058184768
    ));
#986 = CARTESIAN_POINT('',(-2.610910255536,0.475196936411,0.913101128837
    ));
#987 = CARTESIAN_POINT('',(-2.587073671823,0.583541429763,0.952632004068
    ));
#988 = CARTESIAN_POINT('',(-2.54854359101,0.727595219199,1.018336985024)
  );
#989 = CARTESIAN_POINT('',(-2.536460824933,0.769317985448,1.03914193537)
  );
#990 = CARTESIAN_POINT('',(-2.523839959536,0.809878639732,1.061117601834
    ));
#991 = CARTESIAN_POINT('',(-2.510757990894,0.849265017844,1.084186692246
    ));
#992 = CARTESIAN_POINT('',(-2.497290460494,0.887468517893,1.108275627066
    ));
#993 = CARTESIAN_POINT('',(-2.450252891029,1.013829093002,1.193751287676
    ));
#994 = CARTESIAN_POINT('',(-2.415174976533,1.096263669046,1.259729602134
    ));
#995 = CARTESIAN_POINT('',(-2.379235451745,1.171928822366,1.330414899078
    ));
#996 = CARTESIAN_POINT('',(-2.343283510947,1.240999500579,1.405202988559
    ));
#997 = CARTESIAN_POINT('',(-2.308105981842,1.303626568679,1.483671679526
    ));
#998 = CARTESIAN_POINT('',(-2.245607269505,1.408159169774,1.635792162897
    ));
#999 = CARTESIAN_POINT('',(-2.217855591806,1.451783661517,1.708608796118
    ));
#1000 = CARTESIAN_POINT('',(-2.191750670392,1.490710087311,
    1.783704254588));
#1001 = CARTESIAN_POINT('',(-2.167812998815,1.524898629737,
    1.860843934028));
#1002 = CARTESIAN_POINT('',(-2.146533795978,1.554291947286,
    1.939833462604));
#1003 = CARTESIAN_POINT('',(-2.110949390779,1.602262911666,
    2.097787128742));
#1004 = CARTESIAN_POINT('',(-2.096379765283,1.621255157474,
    2.176644504944));
#1005 = CARTESIAN_POINT('',(-2.085108046272,1.635592715606,
    2.256660556874));
#1006 = CARTESIAN_POINT('',(-2.077470806007,1.645190807288,
    2.337455608556));
#1007 = CARTESIAN_POINT('',(-2.073644135333,1.65,2.418681608691));
#1008 = CARTESIAN_POINT('',(-2.073644135333,1.65,2.582531414));
#1009 = CARTESIAN_POINT('',(-2.077585819351,1.645046262726,
    2.664963876137));
#1010 = CARTESIAN_POINT('',(-2.08545169201,1.635160841338,2.746945917339
    ));
#1011 = CARTESIAN_POINT('',(-2.097055245637,1.620395761741,
    2.828115783917));
#1012 = CARTESIAN_POINT('',(-2.112040515156,1.600839843881,
    2.908077863572));
#1013 = CARTESIAN_POINT('',(-2.148251869504,1.551922335656,
    3.066650215725));
#1014 = CARTESIAN_POINT('',(-2.169634487733,1.522314932012,3.14521997523
    ));
#1015 = CARTESIAN_POINT('',(-2.19362892587,1.487953024832,3.221940966007
    ));
#1016 = CARTESIAN_POINT('',(-2.219748857183,1.448892025799,3.29662216778
    ));
#1017 = CARTESIAN_POINT('',(-2.247480171977,1.405169273594,
    3.369032772193));
#1018 = CARTESIAN_POINT('',(-2.309519407559,1.301088072168,
    3.519442745718));
#1019 = CARTESIAN_POINT('',(-2.344214952411,1.239156798009,
    3.596679164024));
#1020 = CARTESIAN_POINT('',(-2.379646087883,1.170960896633,
    3.670329415634));
#1021 = CARTESIAN_POINT('',(-2.415058370115,1.096355427934,
    3.739986992854));
#1022 = CARTESIAN_POINT('',(-2.449638145064,1.015173060654,
    3.805072950999));
#1023 = CARTESIAN_POINT('',(-2.496611417999,0.889418240387,
    3.890514388098));
#1024 = CARTESIAN_POINT('',(-2.510430021727,0.850310211649,
    3.915243397053));
#1025 = CARTESIAN_POINT('',(-2.523845637121,0.809959531853,3.93890312938
    ));
#1026 = CARTESIAN_POINT('',(-2.536776966475,0.76837544013,3.961414429432
    ));
#1027 = CARTESIAN_POINT('',(-2.549141108763,0.72557111557,3.982694046657
    ));
#1028 = CARTESIAN_POINT('',(-2.587689856812,0.580731092604,
    4.048389580629));
#1029 = CARTESIAN_POINT('',(-2.61130541082,0.472831643766,4.087540121067
    ));
#1030 = CARTESIAN_POINT('',(-2.630245733133,0.359191055352,
    4.118272456647));
#1031 = CARTESIAN_POINT('',(-2.643363586896,0.241367785942,
    4.139341784167));
#1032 = CARTESIAN_POINT('',(-2.65,0.121057914602,4.15));
#1033 = CARTESIAN_POINT('',(-2.65,4.440892098501E-16,4.15));
#1034 = PCURVE('',#429,#1035);
#1035 = DEFINITIONAL_REPRESENTATION('',(#1036),#1139);
#1036 = B_SPLINE_CURVE_WITH_KNOTS('',6,(#1037,#1038,#1039,#1040,#1041,
    #1042,#1043,#1044,#1045,#1046,#1047,#1048,#1049,#1050,#1051,#1052,
    #1053,#1054,#1055,#1056,#1057,#1058,#1059,#1060,#1061,#1062,#1063,
    #1064,#1065,#1066,#1067,#1068,#1069,#1070,#1071,#1072,#1073,#1074,
    #1075,#1076,#1077,#1078,#1079,#1080,#1081,#1082,#1083,#1084,#1085,
    #1086,#1087,#1088,#1089,#1090,#1091,#1092,#1093,#1094,#1095,#1096,
    #1097,#1098,#1099,#1100,#1101,#1102,#1103,#1104,#1105,#1106,#1107,
    #1108,#1109,#1110,#1111,#1112,#1113,#1114,#1115,#1116,#1117,#1118,
    #1119,#1120,#1121,#1122,#1123,#1124,#1125,#1126,#1127,#1128,#1129,
    #1130,#1131,#1132,#1133,#1134,#1135,#1136,#1137,#1138),
  .UNSPECIFIED.,.F.,.F.,(7,5,5,5,5,5,5,5,5,5,5,5,5,5,5,5,5,5,5,5,7),(0.,
    5.992964084549E-02,8.532017978255E-02,0.146605651767,0.199206020101,
    0.249582974946,0.300711400501,0.35311680976,0.413531272311,
    0.461666216798,0.499238887378,0.559358310806,0.584829259161,
    0.646308818477,0.699075773726,0.749612273869,0.800902624653,
    0.853474003385,0.914079800316,0.940185346376,1.),.UNSPECIFIED.);
#1037 = CARTESIAN_POINT('',(0.,6.35));
#1038 = CARTESIAN_POINT('',(7.375348298947E-02,6.35));
#1039 = CARTESIAN_POINT('',(0.14704518943,6.356706256743));
#1040 = CARTESIAN_POINT('',(0.219529848265,6.369960116247));
#1041 = CARTESIAN_POINT('',(0.290840554551,6.389089744464));
#1042 = CARTESIAN_POINT('',(0.360525087037,6.412926328177));
#1043 = CARTESIAN_POINT('',(0.456483136813,6.451456407297));
#1044 = CARTESIAN_POINT('',(0.484722231391,6.463539175622));
#1045 = CARTESIAN_POINT('',(0.512656629495,6.476160042258));
#1046 = CARTESIAN_POINT('',(0.540297714595,6.489242009516));
#1047 = CARTESIAN_POINT('',(0.567655768719,6.502709537631));
#1048 = CARTESIAN_POINT('',(0.660113465032,6.549747112369));
#1049 = CARTESIAN_POINT('',(0.723900124099,6.584825018214));
#1050 = CARTESIAN_POINT('',(0.786388086558,6.620764548075));
#1051 = CARTESIAN_POINT('',(0.847845632755,6.656716494207));
#1052 = CARTESIAN_POINT('',(0.908536174076,6.691894015115));
#1053 = CARTESIAN_POINT('',(1.020399447352,6.754392730495));
#1054 = CARTESIAN_POINT('',(1.071744584728,6.782144408194));
#1055 = CARTESIAN_POINT('',(1.122864118827,6.808249329608));
#1056 = CARTESIAN_POINT('',(1.17385904197,6.832187001185));
#1057 = CARTESIAN_POINT('',(1.224842426081,6.853466204022));
#1058 = CARTESIAN_POINT('',(1.324889383045,6.889050609221));
#1059 = CARTESIAN_POINT('',(1.373964153069,6.903620234717));
#1060 = CARTESIAN_POINT('',(1.423102281581,6.914891953728));
#1061 = CARTESIAN_POINT('',(1.472284607176,6.922529193993));
#1062 = CARTESIAN_POINT('',(1.521512453274,6.926355864667));
#1063 = CARTESIAN_POINT('',(1.620815365583,6.926355864667));
#1064 = CARTESIAN_POINT('',(1.670774397577,6.922414180649));
#1065 = CARTESIAN_POINT('',(1.720685913005,6.91454830799));
#1066 = CARTESIAN_POINT('',(1.770552392587,6.902944754363));
#1067 = CARTESIAN_POINT('',(1.820354585718,6.887959484844));
#1068 = CARTESIAN_POINT('',(1.920927989469,6.851748130496));
#1069 = CARTESIAN_POINT('',(1.971719732054,6.830365512267));
#1070 = CARTESIAN_POINT('',(2.022527225549,6.80637107413));
#1071 = CARTESIAN_POINT('',(2.073463269126,6.780251142817));
#1072 = CARTESIAN_POINT('',(2.124629223769,6.752519828023));
#1073 = CARTESIAN_POINT('',(2.235483750215,6.690480592441));
#1074 = CARTESIAN_POINT('',(2.295334107118,6.655785047589));
#1075 = CARTESIAN_POINT('',(2.355935194756,6.620353912117));
#1076 = CARTESIAN_POINT('',(2.417539809836,6.584941629885));
#1077 = CARTESIAN_POINT('',(2.480405136634,6.550361854936));
#1078 = CARTESIAN_POINT('',(2.59611842396,6.491372232819));
#1079 = CARTESIAN_POINT('',(2.64850242745,6.466274177197));
#1080 = CARTESIAN_POINT('',(2.701944955464,6.442789964322));
#1081 = CARTESIAN_POINT('',(2.756454148575,6.421480169621));
#1082 = CARTESIAN_POINT('',(2.812061744439,6.402893235961));
#1083 = CARTESIAN_POINT('',(2.913132199649,6.375567158191));
#1084 = CARTESIAN_POINT('',(2.958126181356,6.365566675666));
#1085 = CARTESIAN_POINT('',(3.00362121291,6.357846519265));
#1086 = CARTESIAN_POINT('',(3.049460146586,6.352619118818));
#1087 = CARTESIAN_POINT('',(3.095499142335,6.35));
#1088 = CARTESIAN_POINT('',(3.215346136579,6.35));
#1089 = CARTESIAN_POINT('',(3.288637843019,6.356706256743));
#1090 = CARTESIAN_POINT('',(3.361122501855,6.369960116247));
#1091 = CARTESIAN_POINT('',(3.432433208141,6.389089744464));
#1092 = CARTESIAN_POINT('',(3.502117740627,6.412926328177));
#1093 = CARTESIAN_POINT('',(3.59807579462,6.45145640899));
#1094 = CARTESIAN_POINT('',(3.626314884147,6.463539175067));
#1095 = CARTESIAN_POINT('',(3.654249279144,6.476160040464));
#1096 = CARTESIAN_POINT('',(3.681890366926,6.489242009106));
#1097 = CARTESIAN_POINT('',(3.709248425994,6.502709539506));
#1098 = CARTESIAN_POINT('',(3.801706111942,6.549747108971));
#1099 = CARTESIAN_POINT('',(3.865492787499,6.584825023467));
#1100 = CARTESIAN_POINT('',(3.927980740744,6.620764548255));
#1101 = CARTESIAN_POINT('',(3.989438276836,6.656716489053));
#1102 = CARTESIAN_POINT('',(4.050128833112,6.691894018158));
#1103 = CARTESIAN_POINT('',(4.161992100942,6.754392730495));
#1104 = CARTESIAN_POINT('',(4.213337238318,6.782144408194));
#1105 = CARTESIAN_POINT('',(4.264456772417,6.808249329608));
#1106 = CARTESIAN_POINT('',(4.31545169556,6.832187001185));
#1107 = CARTESIAN_POINT('',(4.366435079671,6.853466204022));
#1108 = CARTESIAN_POINT('',(4.466482036635,6.889050609221));
#1109 = CARTESIAN_POINT('',(4.515556806659,6.903620234717));
#1110 = CARTESIAN_POINT('',(4.564694935171,6.914891953728));
#1111 = CARTESIAN_POINT('',(4.613877260766,6.922529193993));
#1112 = CARTESIAN_POINT('',(4.663105106864,6.926355864667));
#1113 = CARTESIAN_POINT('',(4.762408019172,6.926355864667));
#1114 = CARTESIAN_POINT('',(4.812367051167,6.922414180649));
#1115 = CARTESIAN_POINT('',(4.862278566594,6.91454830799));
#1116 = CARTESIAN_POINT('',(4.912145046177,6.902944754363));
#1117 = CARTESIAN_POINT('',(4.961947239308,6.887959484844));
#1118 = CARTESIAN_POINT('',(5.062520643059,6.851748130496));
#1119 = CARTESIAN_POINT('',(5.113312385644,6.830365512267));
#1120 = CARTESIAN_POINT('',(5.164119879139,6.80637107413));
#1121 = CARTESIAN_POINT('',(5.215055922716,6.780251142817));
#1122 = CARTESIAN_POINT('',(5.266221877359,6.752519828023));
#1123 = CARTESIAN_POINT('',(5.377076403804,6.690480592441));
#1124 = CARTESIAN_POINT('',(5.436926760707,6.655785047589));
#1125 = CARTESIAN_POINT('',(5.497527848346,6.620353912117));
#1126 = CARTESIAN_POINT('',(5.559132463425,6.584941629885));
#1127 = CARTESIAN_POINT('',(5.621997790224,6.550361854936));
#1128 = CARTESIAN_POINT('',(5.714139960874,6.503388582001));
#1129 = CARTESIAN_POINT('',(5.742167625367,6.489569978273));
#1130 = CARTESIAN_POINT('',(5.770492211464,6.476154362879));
#1131 = CARTESIAN_POINT('',(5.799124759304,6.463223033525));
#1132 = CARTESIAN_POINT('',(5.828077526668,6.450858891237));
#1133 = CARTESIAN_POINT('',(5.924466956105,6.412310143188));
#1134 = CARTESIAN_POINT('',(5.993821963099,6.38869458918));
#1135 = CARTESIAN_POINT('',(6.064782531345,6.369754266867));
#1136 = CARTESIAN_POINT('',(6.136901882987,6.356636413104));
#1137 = CARTESIAN_POINT('',(6.209816874087,6.35));
#1138 = CARTESIAN_POINT('',(6.28318530718,6.35));
#1139 = ( GEOMETRIC_REPRESENTATION_CONTEXT(2) 
PARAMETRIC_REPRESENTATION_CONTEXT() REPRESENTATION_CONTEXT('2D SPACE',''
  ) );
#1140 = PCURVE('',#629,#1141);
#1141 = DEFINITIONAL_REPRESENTATION('',(#1142),#1245);
#1142 = B_SPLINE_CURVE_WITH_KNOTS('',6,(#1143,#1144,#1145,#1146,#1147,
    #1148,#1149,#1150,#1151,#1152,#1153,#1154,#1155,#1156,#1157,#1158,
    #1159,#1160,#1161,#1162,#1163,#1164,#1165,#1166,#1167,#1168,#1169,
    #1170,#1171,#1172,#1173,#1174,#1175,#1176,#1177,#1178,#1179,#1180,
    #1181,#1182,#1183,#1184,#1185,#1186,#1187,#1188,#1189,#1190,#1191,
    #1192,#1193,#1194,#1195,#1196,#1197,#1198,#1199,#1200,#1201,#1202,
    #1203,#1204,#1205,#1206,#1207,#1208,#1209,#1210,#1211,#1212,#1213,
    #1214,#1215,#1216,#1217,#1218,#1219,#1220,#1221,#1222,#1223,#1224,
    #1225,#1226,#1227,#1228,#1229,#1230,#1231,#1232,#1233,#1234,#1235,
    #1236,#1237,#1238,#1239,#1240,#1241,#1242,#1243,#1244),
  .UNSPECIFIED.,.T.,.F.,(7,5,5,5,5,5,5,5,5,5,5,5,5,5,5,5,5,5,5,5,7),(0.,
    5.992964084549E-02,8.532017978255E-02,0.146605651767,0.199206020101,
    0.249582974946,0.300711400501,0.35311680976,0.413531272311,
    0.461666216798,0.499238887378,0.559358310806,0.584829259161,
    0.646308818477,0.699075773726,0.749612273869,0.800902624653,
    0.853474003385,0.914079800316,0.940185346376,1.),.UNSPECIFIED.);
#1143 = CARTESIAN_POINT('',(-3.14159265359,-4.15));
#1144 = CARTESIAN_POINT('',(-3.187514633564,-4.15));
#1145 = CARTESIAN_POINT('',(-3.233149227135,-4.139229619561));
#1146 = CARTESIAN_POINT('',(-3.278005200905,-4.117941815232));
#1147 = CARTESIAN_POINT('',(-3.321599313118,-4.086898871163));
#1148 = CARTESIAN_POINT('',(-3.363419886619,-4.047367995932));
#1149 = CARTESIAN_POINT('',(-3.419690680077,-3.981663017863));
#1150 = CARTESIAN_POINT('',(-3.436078621442,-3.96085806357));
#1151 = CARTESIAN_POINT('',(-3.452103778608,-3.938882395));
#1152 = CARTESIAN_POINT('',(-3.467760912855,-3.915813307109));
#1153 = CARTESIAN_POINT('',(-3.483044576559,-3.891724376341));
#1154 = CARTESIAN_POINT('',(-3.533924385874,-3.806248706148));
#1155 = CARTESIAN_POINT('',(-3.567695435287,-3.740270408734));
#1156 = CARTESIAN_POINT('',(-3.599269135861,-3.669585100385));
#1157 = CARTESIAN_POINT('',(-3.628629516162,-3.594797000349));
#1158 = CARTESIAN_POINT('',(-3.655725264373,-3.516328327879));
#1159 = CARTESIAN_POINT('',(-3.701684298835,-3.364207837103));
#1160 = CARTESIAN_POINT('',(-3.72118752558,-3.291391203882));
#1161 = CARTESIAN_POINT('',(-3.738867595517,-3.216295745412));
#1162 = CARTESIAN_POINT('',(-3.754613697642,-3.139156065972));
#1163 = CARTESIAN_POINT('',(-3.76830613634,-3.060166537396));
#1164 = CARTESIAN_POINT('',(-3.790845096926,-2.902212871258));
#1165 = CARTESIAN_POINT('',(-3.799876732634,-2.823355495056));
#1166 = CARTESIAN_POINT('',(-3.806758690006,-2.743339443126));
#1167 = CARTESIAN_POINT('',(-3.811387354193,-2.662544391444));
#1168 = CARTESIAN_POINT('',(-3.813706541414,-2.581318391309));
#1169 = CARTESIAN_POINT('',(-3.813706541414,-2.417468586));
#1170 = CARTESIAN_POINT('',(-3.811317649952,-2.335036123863));
#1171 = CARTESIAN_POINT('',(-3.806550416826,-2.253054082661));
#1172 = CARTESIAN_POINT('',(-3.799464263957,-2.171884216083));
#1173 = CARTESIAN_POINT('',(-3.790168497298,-2.091922136428));
#1174 = CARTESIAN_POINT('',(-3.767201699418,-1.933349784275));
#1175 = CARTESIAN_POINT('',(-3.753420959785,-1.85478002477));
#1176 = CARTESIAN_POINT('',(-3.73760902752,-1.778059033993));
#1177 = CARTESIAN_POINT('',(-3.719883659642,-1.70337783222));
#1178 = CARTESIAN_POINT('',(-3.70035325885,-1.630967227807));
#1179 = CARTESIAN_POINT('',(-3.654629362221,-1.480557254282));
#1180 = CARTESIAN_POINT('',(-3.627851298024,-1.403320835976));
#1181 = CARTESIAN_POINT('',(-3.59887363699,-1.329670584366));
#1182 = CARTESIAN_POINT('',(-3.567744965569,-1.260013007146));
#1183 = CARTESIAN_POINT('',(-3.534480628697,-1.194927049001));
#1184 = CARTESIAN_POINT('',(-3.470864753166,-1.087628626457));
#1185 = CARTESIAN_POINT('',(-3.441241877808,-1.043365901048));
#1186 = CARTESIAN_POINT('',(-3.410282099088,-1.002997783987));
#1187 = CARTESIAN_POINT('',(-3.378061317247,-0.967095383163));
#1188 = CARTESIAN_POINT('',(-3.344653276463,-0.936233825235));
#1189 = CARTESIAN_POINT('',(-3.283178223687,-0.891307322619));
#1190 = CARTESIAN_POINT('',(-3.255558480875,-0.875050702468));
#1191 = CARTESIAN_POINT('',(-3.227432285719,-0.862601146841));
#1192 = CARTESIAN_POINT('',(-3.198958115684,-0.854206936367));
#1193 = CARTESIAN_POINT('',(-3.170292387013,-0.85));
#1194 = CARTESIAN_POINT('',(-3.095670673615,-0.85));
#1195 = CARTESIAN_POINT('',(-3.050036080045,-0.860770380439));
#1196 = CARTESIAN_POINT('',(-3.005180106275,-0.882058184768));
#1197 = CARTESIAN_POINT('',(-2.961585994062,-0.913101128837));
#1198 = CARTESIAN_POINT('',(-2.91976542056,-0.952632004068));
#1199 = CARTESIAN_POINT('',(-2.86349462463,-1.018336985024));
#1200 = CARTESIAN_POINT('',(-2.847106686154,-1.03914193537));
#1201 = CARTESIAN_POINT('',(-2.831081530814,-1.061117601834));
#1202 = CARTESIAN_POINT('',(-2.815424395097,-1.084186692246));
#1203 = CARTESIAN_POINT('',(-2.800140728592,-1.108275627066));
#1204 = CARTESIAN_POINT('',(-2.749260924981,-1.193751287676));
#1205 = CARTESIAN_POINT('',(-2.715489867041,-1.259729602134));
#1206 = CARTESIAN_POINT('',(-2.68391617064,-1.330414899078));
#1207 = CARTESIAN_POINT('',(-2.65455579554,-1.405202988559));
#1208 = CARTESIAN_POINT('',(-2.627460040569,-1.483671679526));
#1209 = CARTESIAN_POINT('',(-2.581501008345,-1.635792162897));
#1210 = CARTESIAN_POINT('',(-2.561997781599,-1.708608796118));
#1211 = CARTESIAN_POINT('',(-2.544317711662,-1.783704254588));
#1212 = CARTESIAN_POINT('',(-2.528571609538,-1.860843934028));
#1213 = CARTESIAN_POINT('',(-2.51487917084,-1.939833462604));
#1214 = CARTESIAN_POINT('',(-2.492340210254,-2.097787128742));
#1215 = CARTESIAN_POINT('',(-2.483308574545,-2.176644504944));
#1216 = CARTESIAN_POINT('',(-2.476426617174,-2.256660556874));
#1217 = CARTESIAN_POINT('',(-2.471797952987,-2.337455608556));
#1218 = CARTESIAN_POINT('',(-2.469478765766,-2.418681608691));
#1219 = CARTESIAN_POINT('',(-2.469478765766,-2.582531414));
#1220 = CARTESIAN_POINT('',(-2.471867657228,-2.664963876137));
#1221 = CARTESIAN_POINT('',(-2.476634890354,-2.746945917339));
#1222 = CARTESIAN_POINT('',(-2.483721043223,-2.828115783917));
#1223 = CARTESIAN_POINT('',(-2.493016809881,-2.908077863572));
#1224 = CARTESIAN_POINT('',(-2.515983607761,-3.066650215725));
#1225 = CARTESIAN_POINT('',(-2.529764347395,-3.14521997523));
#1226 = CARTESIAN_POINT('',(-2.54557627966,-3.221940966007));
#1227 = CARTESIAN_POINT('',(-2.563301647537,-3.29662216778));
#1228 = CARTESIAN_POINT('',(-2.58283204833,-3.369032772193));
#1229 = CARTESIAN_POINT('',(-2.628555944958,-3.519442745718));
#1230 = CARTESIAN_POINT('',(-2.655334009156,-3.596679164024));
#1231 = CARTESIAN_POINT('',(-2.684311670189,-3.670329415634));
#1232 = CARTESIAN_POINT('',(-2.71544034161,-3.739986992854));
#1233 = CARTESIAN_POINT('',(-2.748704678483,-3.805072950999));
#1234 = CARTESIAN_POINT('',(-2.799361824215,-3.890514388098));
#1235 = CARTESIAN_POINT('',(-2.815011294784,-3.915243397053));
#1236 = CARTESIAN_POINT('',(-2.831053152263,-3.93890312938));
#1237 = CARTESIAN_POINT('',(-2.847481518617,-3.961414429432));
#1238 = CARTESIAN_POINT('',(-2.864290747276,-3.982694046657));
#1239 = CARTESIAN_POINT('',(-2.920850023155,-4.048389580629));
#1240 = CARTESIAN_POINT('',(-2.962489133608,-4.087540121067));
#1241 = CARTESIAN_POINT('',(-3.005877564239,-4.118272456647));
#1242 = CARTESIAN_POINT('',(-3.050510390054,-4.139341784167));
#1243 = CARTESIAN_POINT('',(-3.095910421664,-4.15));
#1244 = CARTESIAN_POINT('',(-3.14159265359,-4.15));
#1245 = ( GEOMETRIC_REPRESENTATION_CONTEXT(2) 
PARAMETRIC_REPRESENTATION_CONTEXT() REPRESENTATION_CONTEXT('2D SPACE',''
  ) );
#1246 = ORIENTED_EDGE('',*,*,#1247,.F.);
#1247 = EDGE_CURVE('',#320,#928,#1248,.T.);
#1248 = SEAM_CURVE('',#1249,(#1253,#1260),.PCURVE_S1.);
#1249 = LINE('',#1250,#1251);
#1250 = CARTESIAN_POINT('',(-9.,4.041334437186E-16,4.15));
#1251 = VECTOR('',#1252,1.);
#1252 = DIRECTION('',(1.,0.,0.));
#1253 = PCURVE('',#429,#1254);
#1254 = DEFINITIONAL_REPRESENTATION('',(#1255),#1259);
#1255 = LINE('',#1256,#1257);
#1256 = CARTESIAN_POINT('',(6.28318530718,-0.));
#1257 = VECTOR('',#1258,1.);
#1258 = DIRECTION('',(0.,1.));
#1259 = ( GEOMETRIC_REPRESENTATION_CONTEXT(2) 
PARAMETRIC_REPRESENTATION_CONTEXT() REPRESENTATION_CONTEXT('2D SPACE',''
  ) );
#1260 = PCURVE('',#429,#1261);
#1261 = DEFINITIONAL_REPRESENTATION('',(#1262),#1266);
#1262 = LINE('',#1263,#1264);
#1263 = CARTESIAN_POINT('',(0.,-0.));
#1264 = VECTOR('',#1265,1.);
#1265 = DIRECTION('',(0.,1.));
#1266 = ( GEOMETRIC_REPRESENTATION_CONTEXT(2) 
PARAMETRIC_REPRESENTATION_CONTEXT() REPRESENTATION_CONTEXT('2D SPACE',''
  ) );
#1267 = ORIENTED_EDGE('',*,*,#319,.T.);
#1268 = ORIENTED_EDGE('',*,*,#1247,.T.);
#1269 = ADVANCED_FACE('',(#1270,#1320),#629,.F.);
#1270 = FACE_BOUND('',#1271,.T.);
#1271 = EDGE_LOOP('',(#1272,#1293,#1294,#1295,#1296,#1317,#1318,#1319));
#1272 = ORIENTED_EDGE('',*,*,#1273,.F.);
#1273 = EDGE_CURVE('',#867,#516,#1274,.T.);
#1274 = SEAM_CURVE('',#1275,(#1279,#1286),.PCURVE_S1.);
#1275 = LINE('',#1276,#1277);
#1276 = CARTESIAN_POINT('',(2.65,0.,0.));
#1277 = VECTOR('',#1278,1.);
#1278 = DIRECTION('',(0.,0.,1.));
#1279 = PCURVE('',#629,#1280);
#1280 = DEFINITIONAL_REPRESENTATION('',(#1281),#1285);
#1281 = LINE('',#1282,#1283);
#1282 = CARTESIAN_POINT('',(-6.28318530718,0.));
#1283 = VECTOR('',#1284,1.);
#1284 = DIRECTION('',(-0.,-1.));
#1285 = ( GEOMETRIC_REPRESENTATION_CONTEXT(2) 
PARAMETRIC_REPRESENTATION_CONTEXT() REPRESENTATION_CONTEXT('2D SPACE',''
  ) );
#1286 = PCURVE('',#629,#1287);
#1287 = DEFINITIONAL_REPRESENTATION('',(#1288),#1292);
#1288 = LINE('',#1289,#1290);
#1289 = CARTESIAN_POINT('',(-0.,0.));
#1290 = VECTOR('',#1291,1.);
#1291 = DIRECTION('',(-0.,-1.));
#1292 = ( GEOMETRIC_REPRESENTATION_CONTEXT(2) 
PARAMETRIC_REPRESENTATION_CONTEXT() REPRESENTATION_CONTEXT('2D SPACE',''
  ) );
#1293 = ORIENTED_EDGE('',*,*,#866,.F.);
#1294 = ORIENTED_EDGE('',*,*,#1273,.T.);
#1295 = ORIENTED_EDGE('',*,*,#690,.T.);
#1296 = ORIENTED_EDGE('',*,*,#1297,.T.);
#1297 = EDGE_CURVE('',#493,#897,#1298,.T.);
#1298 = SEAM_CURVE('',#1299,(#1303,#1310),.PCURVE_S1.);
#1299 = LINE('',#1300,#1301);
#1300 = CARTESIAN_POINT('',(2.65,0.,0.));
#1301 = VECTOR('',#1302,1.);
#1302 = DIRECTION('',(0.,0.,1.));
#1303 = PCURVE('',#629,#1304);
#1304 = DEFINITIONAL_REPRESENTATION('',(#1305),#1309);
#1305 = LINE('',#1306,#1307);
#1306 = CARTESIAN_POINT('',(-6.28318530718,0.));
#1307 = VECTOR('',#1308,1.);
#1308 = DIRECTION('',(-0.,-1.));
#1309 = ( GEOMETRIC_REPRESENTATION_CONTEXT(2) 
PARAMETRIC_REPRESENTATION_CONTEXT() REPRESENTATION_CONTEXT('2D SPACE',''
  ) );
#1310 = PCURVE('',#629,#1311);
#1311 = DEFINITIONAL_REPRESENTATION('',(#1312),#1316);
#1312 = LINE('',#1313,#1314);
#1313 = CARTESIAN_POINT('',(-0.,0.));
#1314 = VECTOR('',#1315,1.);
#1315 = DIRECTION('',(-0.,-1.));
#1316 = ( GEOMETRIC_REPRESENTATION_CONTEXT(2) 
PARAMETRIC_REPRESENTATION_CONTEXT() REPRESENTATION_CONTEXT('2D SPACE',''
  ) );
#1317 = ORIENTED_EDGE('',*,*,#896,.F.);
#1318 = ORIENTED_EDGE('',*,*,#1297,.F.);
#1319 = ORIENTED_EDGE('',*,*,#515,.T.);
#1320 = FACE_BOUND('',#1321,.T.);
#1321 = EDGE_LOOP('',(#1322));
#1322 = ORIENTED_EDGE('',*,*,#927,.F.);
#1323 = ( GEOMETRIC_REPRESENTATION_CONTEXT(3) 
GLOBAL_UNCERTAINTY_ASSIGNED_CONTEXT((#1327)) 
GLOBAL_UNIT_ASSIGNED_CONTEXT((#1324,#1325,#1326)) REPRESENTATION_CONTEXT
('Context #1','3D Context with UNIT and UNCERTAINTY') );
#1324 = ( LENGTH_UNIT() NAMED_UNIT(*) SI_UNIT(.MILLI.,.METRE.) );
#1325 = ( NAMED_UNIT(*) PLANE_ANGLE_UNIT() SI_UNIT($,.RADIAN.) );
#1326 = ( NAMED_UNIT(*) SI_UNIT($,.STERADIAN.) SOLID_ANGLE_UNIT() );
#1327 = UNCERTAINTY_MEASURE_WITH_UNIT(LENGTH_MEASURE(1.E-07),#1324,
  'distance_accuracy_value','confusion accuracy');
#1328 = PRODUCT_RELATED_PRODUCT_CATEGORY('part',$,(#7));
ENDSEC;
END-ISO-10303-21;
